<svg width="235" height="37" viewBox="0 0 235 37" fill="none" xmlns="http://www.w3.org/2000/svg">
<path d="M7.748 31.182C6.552 31.182 5.47733 30.974 4.524 30.558C3.588 30.1247 2.85133 29.5353 2.314 28.79C1.77667 28.0273 1.49933 27.152 1.482 26.164H4.004C4.09067 27.0133 4.43733 27.7327 5.044 28.322C5.668 28.894 6.56933 29.18 7.748 29.18C8.87467 29.18 9.75867 28.9027 10.4 28.348C11.0587 27.776 11.388 27.048 11.388 26.164C11.388 25.4707 11.1973 24.9073 10.816 24.474C10.4347 24.0407 9.958 23.7113 9.386 23.486C8.814 23.2607 8.04267 23.018 7.072 22.758C5.876 22.446 4.914 22.134 4.186 21.822C3.47533 21.51 2.86 21.0247 2.34 20.366C1.83733 19.69 1.586 18.7887 1.586 17.662C1.586 16.674 1.83733 15.7987 2.34 15.036C2.84267 14.2733 3.54467 13.684 4.446 13.268C5.36467 12.852 6.41333 12.644 7.592 12.644C9.29067 12.644 10.6773 13.0687 11.752 13.918C12.844 14.7673 13.4593 15.894 13.598 17.298H10.998C10.9113 16.6047 10.5473 15.998 9.906 15.478C9.26467 14.9407 8.41533 14.672 7.358 14.672C6.37 14.672 5.564 14.932 4.94 15.452C4.316 15.9547 4.004 16.6653 4.004 17.584C4.004 18.2427 4.186 18.78 4.55 19.196C4.93133 19.612 5.39067 19.9327 5.928 20.158C6.48267 20.366 7.254 20.6087 8.242 20.886C9.438 21.2153 10.4 21.5447 11.128 21.874C11.856 22.186 12.48 22.68 13 23.356C13.52 24.0147 13.78 24.916 13.78 26.06C13.78 26.944 13.546 27.776 13.078 28.556C12.61 29.336 11.9167 29.9687 10.998 30.454C10.0793 30.9393 8.996 31.182 7.748 31.182ZM30.2618 23.33C30.2618 23.7807 30.2358 24.2573 30.1838 24.76H18.7958C18.8824 26.164 19.3591 27.2647 20.2258 28.062C21.1098 28.842 22.1758 29.232 23.4238 29.232C24.4464 29.232 25.2958 28.998 25.9718 28.53C26.6651 28.0447 27.1504 27.4033 27.4278 26.606H29.9758C29.5944 27.9753 28.8318 29.0933 27.6878 29.96C26.5438 30.8093 25.1224 31.234 23.4238 31.234C22.0718 31.234 20.8584 30.9307 19.7838 30.324C18.7264 29.7173 17.8944 28.8593 17.2878 27.75C16.6811 26.6233 16.3778 25.3233 16.3778 23.85C16.3778 22.3767 16.6724 21.0853 17.2618 19.976C17.8511 18.8667 18.6744 18.0173 19.7318 17.428C20.8064 16.8213 22.0371 16.518 23.4238 16.518C24.7758 16.518 25.9718 16.8127 27.0118 17.402C28.0518 17.9913 28.8491 18.806 29.4038 19.846C29.9758 20.8687 30.2618 22.03 30.2618 23.33ZM27.8178 22.836C27.8178 21.9347 27.6184 21.1633 27.2198 20.522C26.8211 19.8633 26.2751 19.3693 25.5818 19.04C24.9058 18.6933 24.1518 18.52 23.3198 18.52C22.1238 18.52 21.1011 18.9013 20.2518 19.664C19.4198 20.4267 18.9431 21.484 18.8218 22.836H27.8178ZM40.3268 16.492C42.0601 16.492 43.4641 17.0207 44.5388 18.078C45.6135 19.118 46.1508 20.626 46.1508 22.602V31H43.8108V22.94C43.8108 21.5187 43.4555 20.4353 42.7448 19.69C42.0341 18.9273 41.0635 18.546 39.8328 18.546C38.5848 18.546 37.5881 18.936 36.8428 19.716C36.1148 20.496 35.7508 21.6313 35.7508 23.122V31H33.3848V16.752H35.7508V18.78C36.2188 18.052 36.8515 17.4887 37.6488 17.09C38.4635 16.6913 39.3561 16.492 40.3268 16.492ZM51.2377 14.438C50.787 14.438 50.4057 14.282 50.0937 13.97C49.7817 13.658 49.6257 13.2767 49.6257 12.826C49.6257 12.3753 49.7817 11.994 50.0937 11.682C50.4057 11.37 50.787 11.214 51.2377 11.214C51.671 11.214 52.035 11.37 52.3297 11.682C52.6417 11.994 52.7977 12.3753 52.7977 12.826C52.7977 13.2767 52.6417 13.658 52.3297 13.97C52.035 14.282 51.671 14.438 51.2377 14.438ZM52.3817 16.752V31H50.0157V16.752H52.3817ZM62.6281 31.234C61.2934 31.234 60.0801 30.9307 58.9881 30.324C57.9134 29.7173 57.0641 28.8593 56.4401 27.75C55.8334 26.6233 55.5301 25.3233 55.5301 23.85C55.5301 22.394 55.8421 21.1113 56.4661 20.002C57.1074 18.8753 57.9741 18.0173 59.0661 17.428C60.1581 16.8213 61.3801 16.518 62.7321 16.518C64.0841 16.518 65.3061 16.8213 66.3981 17.428C67.4901 18.0173 68.3481 18.8667 68.9721 19.976C69.6134 21.0853 69.9341 22.3767 69.9341 23.85C69.9341 25.3233 69.6048 26.6233 68.9461 27.75C68.3048 28.8593 67.4294 29.7173 66.3201 30.324C65.2108 30.9307 63.9801 31.234 62.6281 31.234ZM62.6281 29.154C63.4774 29.154 64.2748 28.9547 65.0201 28.556C65.7654 28.1573 66.3634 27.5593 66.8141 26.762C67.2821 25.9647 67.5161 24.994 67.5161 23.85C67.5161 22.706 67.2908 21.7353 66.8401 20.938C66.3894 20.1407 65.8001 19.5513 65.0721 19.17C64.3441 18.7713 63.5554 18.572 62.7061 18.572C61.8394 18.572 61.0421 18.7713 60.3141 19.17C59.6034 19.5513 59.0314 20.1407 58.5981 20.938C58.1648 21.7353 57.9481 22.706 57.9481 23.85C57.9481 25.0113 58.1561 25.9907 58.5721 26.788C59.0054 27.5853 59.5774 28.1833 60.2881 28.582C60.9988 28.9633 61.7788 29.154 62.6281 29.154ZM75.411 19.066C75.827 18.2513 76.4163 17.6187 77.179 17.168C77.959 16.7173 78.9036 16.492 80.013 16.492V18.936H79.389C76.737 18.936 75.411 20.3747 75.411 23.252V31H73.045V16.752H75.411V19.066ZM102.364 12.878L96.4618 24.162V31H94.0958V24.162L88.1678 12.878H90.7938L95.2658 22.056L99.7378 12.878H102.364ZM117.859 23.33C117.859 23.7807 117.833 24.2573 117.781 24.76H106.393C106.48 26.164 106.957 27.2647 107.823 28.062C108.707 28.842 109.773 29.232 111.021 29.232C112.044 29.232 112.893 28.998 113.569 28.53C114.263 28.0447 114.748 27.4033 115.025 26.606H117.573C117.192 27.9753 116.429 29.0933 115.285 29.96C114.141 30.8093 112.72 31.234 111.021 31.234C109.669 31.234 108.456 30.9307 107.381 30.324C106.324 29.7173 105.492 28.8593 104.885 27.75C104.279 26.6233 103.975 25.3233 103.975 23.85C103.975 22.3767 104.27 21.0853 104.859 19.976C105.449 18.8667 106.272 18.0173 107.329 17.428C108.404 16.8213 109.635 16.518 111.021 16.518C112.373 16.518 113.569 16.8127 114.609 17.402C115.649 17.9913 116.447 18.806 117.001 19.846C117.573 20.8687 117.859 22.03 117.859 23.33ZM115.415 22.836C115.415 21.9347 115.216 21.1633 114.817 20.522C114.419 19.8633 113.873 19.3693 113.179 19.04C112.503 18.6933 111.749 18.52 110.917 18.52C109.721 18.52 108.699 18.9013 107.849 19.664C107.017 20.4267 106.541 21.484 106.419 22.836H115.415ZM120.098 23.824C120.098 22.368 120.393 21.094 120.982 20.002C121.572 18.8927 122.378 18.0347 123.4 17.428C124.44 16.8213 125.593 16.518 126.858 16.518C128.106 16.518 129.19 16.7867 130.108 17.324C131.027 17.8613 131.712 18.5373 132.162 19.352V16.752H134.554V31H132.162V28.348C131.694 29.18 130.992 29.8733 130.056 30.428C129.138 30.9653 128.063 31.234 126.832 31.234C125.567 31.234 124.423 30.922 123.4 30.298C122.378 29.674 121.572 28.7987 120.982 27.672C120.393 26.5453 120.098 25.2627 120.098 23.824ZM132.162 23.85C132.162 22.7753 131.946 21.8393 131.512 21.042C131.079 20.2447 130.49 19.638 129.744 19.222C129.016 18.7887 128.21 18.572 127.326 18.572C126.442 18.572 125.636 18.78 124.908 19.196C124.18 19.612 123.6 20.2187 123.166 21.016C122.733 21.8133 122.516 22.7493 122.516 23.824C122.516 24.916 122.733 25.8693 123.166 26.684C123.6 27.4813 124.18 28.0967 124.908 28.53C125.636 28.946 126.442 29.154 127.326 29.154C128.21 29.154 129.016 28.946 129.744 28.53C130.49 28.0967 131.079 27.4813 131.512 26.684C131.946 25.8693 132.162 24.9247 132.162 23.85ZM140.919 19.066C141.335 18.2513 141.924 17.6187 142.687 17.168C143.467 16.7173 144.411 16.492 145.521 16.492V18.936H144.897C142.245 18.936 140.919 20.3747 140.919 23.252V31H138.553V16.752H140.919V19.066Z" fill="black"/>
<path d="M154.53 10.298C154.683 7.23133 155.757 4.87 157.75 3.214C159.774 1.52733 162.427 0.683998 165.708 0.683998C167.947 0.683998 169.863 1.08266 171.458 1.88C173.053 2.64666 174.249 3.70466 175.046 5.054C175.874 6.37267 176.288 7.87533 176.288 9.562C176.288 11.494 175.782 13.1347 174.77 14.484C173.789 15.8027 172.608 16.692 171.228 17.152V17.336C173.007 17.888 174.387 18.8693 175.368 20.28C176.38 21.6907 176.886 23.5 176.886 25.708C176.886 27.548 176.457 29.1887 175.598 30.63C174.77 32.0713 173.528 33.206 171.872 34.034C170.247 34.8313 168.284 35.23 165.984 35.23C162.519 35.23 159.697 34.356 157.52 32.608C155.343 30.86 154.193 28.284 154.07 24.88H160.326C160.387 26.3827 160.893 27.594 161.844 28.514C162.825 29.4033 164.159 29.848 165.846 29.848C167.41 29.848 168.606 29.4187 169.434 28.56C170.293 27.6707 170.722 26.536 170.722 25.156C170.722 23.316 170.139 21.9973 168.974 21.2C167.809 20.4027 165.999 20.004 163.546 20.004H162.212V14.714H163.546C167.901 14.714 170.078 13.2573 170.078 10.344C170.078 9.02533 169.679 7.998 168.882 7.262C168.115 6.526 166.996 6.158 165.524 6.158C164.083 6.158 162.963 6.55667 162.166 7.354C161.399 8.12067 160.955 9.102 160.832 10.298H154.53ZM197.063 9.838C196.756 8.55 196.22 7.584 195.453 6.94C194.717 6.296 193.644 5.974 192.233 5.974C190.117 5.974 188.553 6.83266 187.541 8.55C186.56 10.2367 186.054 12.9967 186.023 16.83C186.759 15.6033 187.832 14.6527 189.243 13.978C190.654 13.2727 192.187 12.92 193.843 12.92C195.836 12.92 197.6 13.3493 199.133 14.208C200.666 15.0667 201.862 16.324 202.721 17.98C203.58 19.6053 204.009 21.568 204.009 23.868C204.009 26.0453 203.564 27.9927 202.675 29.71C201.816 31.3967 200.544 32.7153 198.857 33.666C197.17 34.6167 195.162 35.092 192.831 35.092C189.642 35.092 187.127 34.3867 185.287 32.976C183.478 31.5653 182.205 29.6027 181.469 27.088C180.764 24.5427 180.411 21.4147 180.411 17.704C180.411 12.092 181.377 7.86 183.309 5.008C185.241 2.12533 188.292 0.683998 192.463 0.683998C195.683 0.683998 198.182 1.558 199.961 3.306C201.74 5.054 202.767 7.23133 203.043 9.838H197.063ZM192.371 18.21C190.746 18.21 189.381 18.6853 188.277 19.636C187.173 20.5867 186.621 21.9667 186.621 23.776C186.621 25.5853 187.127 27.0113 188.139 28.054C189.182 29.0967 190.638 29.618 192.509 29.618C194.165 29.618 195.468 29.112 196.419 28.1C197.4 27.088 197.891 25.7233 197.891 24.006C197.891 22.2273 197.416 20.8167 196.465 19.774C195.545 18.7313 194.18 18.21 192.371 18.21ZM206.799 17.796C206.799 12.4907 207.75 8.33533 209.651 5.33C211.583 2.32467 214.772 0.821999 219.219 0.821999C223.666 0.821999 226.84 2.32467 228.741 5.33C230.673 8.33533 231.639 12.4907 231.639 17.796C231.639 23.132 230.673 27.318 228.741 30.354C226.84 33.39 223.666 34.908 219.219 34.908C214.772 34.908 211.583 33.39 209.651 30.354C207.75 27.318 206.799 23.132 206.799 17.796ZM225.291 17.796C225.291 15.5267 225.138 13.6253 224.831 12.092C224.555 10.528 223.972 9.25533 223.083 8.274C222.224 7.29267 220.936 6.802 219.219 6.802C217.502 6.802 216.198 7.29267 215.309 8.274C214.45 9.25533 213.868 10.528 213.561 12.092C213.285 13.6253 213.147 15.5267 213.147 17.796C213.147 20.1267 213.285 22.0893 213.561 23.684C213.837 25.248 214.42 26.5207 215.309 27.502C216.198 28.4527 217.502 28.928 219.219 28.928C220.936 28.928 222.24 28.4527 223.129 27.502C224.018 26.5207 224.601 25.248 224.877 23.684C225.153 22.0893 225.291 20.1267 225.291 17.796Z" fill="#2998FF"/>
</svg>
