<svg width="332" height="51" viewBox="0 0 332 51" fill="none" xmlns="http://www.w3.org/2000/svg">
<path d="M9.0321 44.9399C7.30813 44.9399 5.75905 44.6334 4.38488 44.0204C3.03568 43.3819 1.97382 42.5135 1.19928 41.4152C0.424746 40.2914 0.024985 39.0015 0 37.5457H3.63532C3.76025 38.7972 4.25995 39.8572 5.13443 40.7256C6.03389 41.5684 7.33311 41.9899 9.0321 41.9899C10.6561 41.9899 11.9304 41.5812 12.8548 40.7639C13.8042 39.921 14.279 38.8483 14.279 37.5457C14.279 36.524 14.0041 35.6939 13.4544 35.0554C12.9048 34.4169 12.2177 33.9316 11.3932 33.5996C10.5687 33.2675 9.45684 32.9099 8.05768 32.5268C6.33371 32.0671 4.94704 31.6073 3.89767 31.1476C2.87328 30.6879 1.98631 29.9727 1.23676 29.0021C0.512193 28.006 0.14991 26.6779 0.14991 25.0177C0.14991 23.5618 0.512193 22.272 1.23676 21.1482C1.96133 20.0244 2.97322 19.156 4.27244 18.543C5.59665 17.93 7.10825 17.6235 8.80723 17.6235C11.2558 17.6235 13.2546 18.2493 14.8036 19.5008C16.3777 20.7523 17.2647 22.4125 17.4645 24.4813H13.7168C13.5919 23.4597 13.0672 22.5657 12.1427 21.7995C11.2183 21.0077 9.99402 20.6118 8.46993 20.6118C7.04578 20.6118 5.88398 20.9949 4.98452 21.7612C4.08506 22.5019 3.63532 23.5491 3.63532 24.9028C3.63532 25.8733 3.89767 26.6651 4.42235 27.2781C4.97202 27.8911 5.63413 28.3636 6.40866 28.6956C7.20819 29.0021 8.32002 29.3597 9.74417 29.7684C11.4681 30.2537 12.8548 30.7389 13.9042 31.2242C14.9536 31.684 15.853 32.4119 16.6026 33.408C17.3521 34.3786 17.7269 35.7067 17.7269 37.3924C17.7269 38.695 17.3896 39.921 16.715 41.0704C16.0404 42.2197 15.041 43.152 13.7168 43.8672C12.3926 44.5823 10.831 44.9399 9.0321 44.9399Z" fill="white"/>
<path d="M41.4845 33.3697C41.4845 34.0338 41.447 34.7361 41.372 35.4768H24.9568C25.0818 37.5457 25.7689 39.1676 27.0181 40.3425C28.2923 41.4918 29.8289 42.0665 31.6278 42.0665C33.102 42.0665 34.3262 41.7217 35.3007 41.0321C36.3001 40.3169 36.9996 39.3719 37.3994 38.197H41.0722C40.5225 40.2148 39.4232 41.8622 37.7742 43.1392C36.1252 44.3908 34.0764 45.0165 31.6278 45.0165C29.679 45.0165 27.9301 44.5695 26.381 43.6756C24.8569 42.7817 23.6576 41.5174 22.7831 39.8827C21.9087 38.2225 21.4714 36.3069 21.4714 34.1359C21.4714 31.9649 21.8962 30.0621 22.7457 28.4275C23.5952 26.7928 24.7819 25.5413 26.306 24.6729C27.8551 23.7789 29.629 23.332 31.6278 23.332C33.5767 23.332 35.3007 23.7662 36.7998 24.6346C38.2989 25.503 39.4482 26.7034 40.2477 28.2359C41.0722 29.7428 41.4845 31.4541 41.4845 33.3697ZM37.9616 32.6418C37.9616 31.3136 37.6742 30.177 37.0996 29.232C36.5249 28.2614 35.7379 27.5335 34.7385 27.0482C33.7641 26.5374 32.6772 26.282 31.4779 26.282C29.754 26.282 28.2799 26.8439 27.0556 27.9677C25.8563 29.0915 25.1692 30.6495 24.9943 32.6418H37.9616Z" fill="white"/>
<path d="M55.9927 23.2937C58.4912 23.2937 60.515 24.0727 62.064 25.6307C63.6131 27.1632 64.3876 29.3852 64.3876 32.297V44.6717H61.0147V32.795C61.0147 30.7006 60.5025 29.1043 59.4781 28.006C58.4537 26.8822 57.0545 26.3203 55.2806 26.3203C53.4817 26.3203 52.045 26.895 50.9707 28.0443C49.9213 29.1937 49.3966 30.8666 49.3966 33.0632V44.6717H45.9861V23.6768H49.3966V26.6651C50.0712 25.5924 50.9832 24.7623 52.1325 24.1748C53.3068 23.5874 54.5935 23.2937 55.9927 23.2937Z" fill="white"/>
<path d="M71.7201 20.267C71.0705 20.267 70.5208 20.0371 70.0711 19.5774C69.6213 19.1177 69.3965 18.5557 69.3965 17.8917C69.3965 17.2276 69.6213 16.6657 70.0711 16.2059C70.5208 15.7462 71.0705 15.5163 71.7201 15.5163C72.3447 15.5163 72.8694 15.7462 73.2941 16.2059C73.7439 16.6657 73.9687 17.2276 73.9687 17.8917C73.9687 18.5557 73.7439 19.1177 73.2941 19.5774C72.8694 20.0371 72.3447 20.267 71.7201 20.267ZM73.3691 23.6768V44.6717H69.9586V23.6768H73.3691Z" fill="white"/>
<path d="M88.1388 45.0165C86.2149 45.0165 84.466 44.5695 82.8919 43.6756C81.3428 42.7817 80.1186 41.5174 79.2191 39.8827C78.3446 38.2225 77.9074 36.3069 77.9074 34.1359C77.9074 31.9905 78.3571 30.1004 79.2566 28.4658C80.181 26.8056 81.4303 25.5413 83.0043 24.6729C84.5784 23.7789 86.3398 23.332 88.2887 23.332C90.2375 23.332 91.9989 23.7789 93.573 24.6729C95.1471 25.5413 96.3838 26.7928 97.2833 28.4275C98.2077 30.0621 98.67 31.9649 98.67 34.1359C98.67 36.3069 98.1952 38.2225 97.2458 39.8827C96.3214 41.5174 95.0596 42.7817 93.4606 43.6756C91.8615 44.5695 90.0876 45.0165 88.1388 45.0165ZM88.1388 41.9516C89.363 41.9516 90.5123 41.6578 91.5867 41.0704C92.661 40.4829 93.523 39.6018 94.1726 38.4269C94.8472 37.252 95.1845 35.8217 95.1845 34.1359C95.1845 32.4502 94.8597 31.0199 94.2101 29.845C93.5605 28.6701 92.711 27.8017 91.6616 27.2398C90.6123 26.6523 89.4755 26.3586 88.2512 26.3586C87.0019 26.3586 85.8526 26.6523 84.8033 27.2398C83.7789 27.8017 82.9544 28.6701 82.3297 29.845C81.7051 31.0199 81.3928 32.4502 81.3928 34.1359C81.3928 35.8472 81.6926 37.2903 82.2923 38.4652C82.9169 39.6401 83.7414 40.5213 84.7658 41.1087C85.7902 41.6706 86.9145 41.9516 88.1388 41.9516Z" fill="white"/>
<path d="M106.565 27.0865C107.164 25.8861 108.014 24.9538 109.113 24.2898C110.237 23.6257 111.599 23.2937 113.198 23.2937V26.895H112.299C108.476 26.895 106.565 29.0149 106.565 33.2548V44.6717H103.154V23.6768H106.565V27.0865Z" fill="white"/>
<path d="M145.416 17.9683L136.908 34.5957V44.6717H133.498V34.5957L124.953 17.9683H128.738L135.184 31.4924L141.63 17.9683H145.416Z" fill="white"/>
<path d="M167.752 33.3697C167.752 34.0338 167.714 34.7361 167.639 35.4768H151.224C151.349 37.5457 152.036 39.1676 153.285 40.3425C154.56 41.4918 156.096 42.0665 157.895 42.0665C159.369 42.0665 160.593 41.7217 161.568 41.0321C162.567 40.3169 163.267 39.3719 163.667 38.197H167.339C166.79 40.2148 165.69 41.8622 164.041 43.1392C162.392 44.3908 160.344 45.0165 157.895 45.0165C155.946 45.0165 154.197 44.5695 152.648 43.6756C151.124 42.7817 149.925 41.5174 149.05 39.8827C148.176 38.2225 147.739 36.3069 147.739 34.1359C147.739 31.9649 148.163 30.0621 149.013 28.4275C149.862 26.7928 151.049 25.5413 152.573 24.6729C154.122 23.7789 155.896 23.332 157.895 23.332C159.844 23.332 161.568 23.7662 163.067 24.6346C164.566 25.503 165.715 26.7034 166.515 28.2359C167.339 29.7428 167.752 31.4541 167.752 33.3697ZM164.229 32.6418C164.229 31.3136 163.941 30.177 163.367 29.232C162.792 28.2614 162.005 27.5335 161.006 27.0482C160.031 26.5374 158.944 26.282 157.745 26.282C156.021 26.282 154.547 26.8439 153.323 27.9677C152.124 29.0915 151.436 30.6495 151.262 32.6418H164.229Z" fill="white"/>
<path d="M170.979 34.0976C170.979 31.9521 171.404 30.0749 172.253 28.4658C173.103 26.8311 174.265 25.5668 175.739 24.6729C177.238 23.7789 178.899 23.332 180.723 23.332C182.522 23.332 184.084 23.7279 185.408 24.5196C186.732 25.3114 187.719 26.3075 188.369 27.508V23.6768H191.817V44.6717H188.369V40.7639C187.694 41.9899 186.682 43.0115 185.333 43.8288C184.009 44.6206 182.46 45.0165 180.686 45.0165C178.862 45.0165 177.213 44.5568 175.739 43.6373C174.265 42.7178 173.103 41.428 172.253 39.7678C171.404 38.1076 170.979 36.2175 170.979 34.0976ZM188.369 34.1359C188.369 32.5524 188.056 31.1731 187.432 29.9982C186.807 28.8233 185.958 27.9294 184.883 27.3164C183.834 26.6779 182.672 26.3586 181.398 26.3586C180.124 26.3586 178.962 26.6651 177.912 27.2781C176.863 27.8911 176.026 28.785 175.401 29.9599C174.777 31.1348 174.465 32.5141 174.465 34.0976C174.465 35.7067 174.777 37.1115 175.401 38.3119C176.026 39.4868 176.863 40.3935 177.912 41.0321C178.962 41.6451 180.124 41.9516 181.398 41.9516C182.672 41.9516 183.834 41.6451 184.883 41.0321C185.958 40.3935 186.807 39.4868 187.432 38.3119C188.056 37.1115 188.369 35.7195 188.369 34.1359Z" fill="white"/>
<path d="M200.99 27.0865C201.59 25.8861 202.44 24.9538 203.539 24.2898C204.663 23.6257 206.025 23.2937 207.624 23.2937V26.895H206.725C202.902 26.895 200.99 29.0149 200.99 33.2548V44.6717H197.58V23.6768H200.99V27.0865Z" fill="white"/>
<path d="M220.61 14.1666C220.831 9.64773 222.378 6.16822 225.252 3.72805C228.169 1.24268 231.993 0 236.723 0C239.95 0 242.712 0.58745 245.011 1.76235C247.31 2.89206 249.034 4.45106 250.183 6.43935C251.376 8.38245 251.973 10.5967 251.973 13.0821C251.973 15.9289 251.244 18.3465 249.785 20.3348C248.371 22.2779 246.669 23.5884 244.68 24.2662V24.5373C247.243 25.3507 249.233 26.7967 250.647 28.8754C252.106 30.9541 252.835 33.6202 252.835 36.8738C252.835 39.5851 252.216 42.0026 250.979 44.1265C249.785 46.2504 247.995 47.9223 245.608 49.1424C243.265 50.3173 240.436 50.9048 237.121 50.9048C232.125 50.9048 228.059 49.6169 224.92 47.0412C221.782 44.4654 220.124 40.6696 219.947 35.6537H228.965C229.053 37.8679 229.783 39.6528 231.153 41.0085C232.568 42.319 234.49 42.9742 236.922 42.9742C239.176 42.9742 240.9 42.3416 242.094 41.0763C243.331 39.7658 243.95 38.0938 243.95 36.0604C243.95 33.3491 243.11 31.406 241.431 30.2311C239.751 29.0562 237.143 28.4687 233.606 28.4687H231.683V20.6737H233.606C239.883 20.6737 243.022 18.5273 243.022 14.2344C243.022 12.2913 242.447 10.7774 241.298 9.69292C240.193 8.6084 238.579 8.06614 236.458 8.06614C234.38 8.06614 232.766 8.65358 231.617 9.82848C230.512 10.9582 229.871 12.4042 229.694 14.1666H220.61Z" fill="#2998FF"/>
<path d="M281.919 13.4887C281.477 11.5908 280.704 10.1674 279.599 9.21844C278.538 8.26948 276.991 7.795 274.957 7.795C271.907 7.795 269.653 9.06028 268.194 11.5908C266.779 14.0762 266.05 18.1432 266.006 23.7917C267.067 21.9842 268.614 20.5833 270.647 19.5892C272.681 18.5499 274.891 18.0302 277.278 18.0302C280.151 18.0302 282.693 18.6628 284.903 19.9281C287.113 21.1934 288.837 23.0461 290.075 25.4863C291.313 27.8813 291.932 30.7733 291.932 34.1624C291.932 37.3708 291.291 40.2403 290.009 42.7708C288.771 45.2562 286.937 47.1993 284.505 48.6002C282.074 50.001 279.179 50.7014 275.819 50.7014C271.222 50.7014 267.597 49.6621 264.945 47.5834C262.337 45.5047 260.502 42.6127 259.442 38.9072C258.425 35.1566 257.916 30.5474 257.916 25.0796C257.916 16.8101 259.309 10.5741 262.094 6.37157C264.879 2.12386 269.277 0 275.289 0C279.93 0 283.533 1.28787 286.097 3.86361C288.661 6.43935 290.141 9.64773 290.539 13.4887H281.919ZM275.156 25.8252C272.813 25.8252 270.846 26.5256 269.255 27.9265C267.664 29.3273 266.868 31.3608 266.868 34.0269C266.868 36.693 267.597 38.7943 269.056 40.3307C270.559 41.8671 272.659 42.6353 275.355 42.6353C277.742 42.6353 279.621 41.8897 280.991 40.3985C282.406 38.9072 283.113 36.8964 283.113 34.3658C283.113 31.7449 282.428 29.6662 281.057 28.1298C279.731 26.5934 277.764 25.8252 275.156 25.8252Z" fill="#2998FF"/>
<path d="M295.953 25.2151C295.953 17.3975 297.323 11.2745 300.064 6.84605C302.849 2.41758 307.446 0.203349 313.856 0.203349C320.265 0.203349 324.841 2.41758 327.581 6.84605C330.366 11.2745 331.759 17.3975 331.759 25.2151C331.759 33.0779 330.366 39.2461 327.581 43.7198C324.841 48.1935 320.265 50.4303 313.856 50.4303C307.446 50.4303 302.849 48.1935 300.064 43.7198C297.323 39.2461 295.953 33.0779 295.953 25.2151ZM322.608 25.2151C322.608 21.8712 322.387 19.0695 321.945 16.8101C321.547 14.5055 320.708 12.6302 319.426 11.1841C318.188 9.73811 316.331 9.01509 313.856 9.01509C311.38 9.01509 309.502 9.73811 308.22 11.1841C306.982 12.6302 306.142 14.5055 305.7 16.8101C305.302 19.0695 305.103 21.8712 305.103 25.2151C305.103 28.6495 305.302 31.5415 305.7 33.8913C306.098 36.1959 306.938 38.0713 308.22 39.5173C309.502 40.9181 311.38 41.6185 313.856 41.6185C316.331 41.6185 318.21 40.9181 319.492 39.5173C320.774 38.0713 321.614 36.1959 322.012 33.8913C322.409 31.5415 322.608 28.6495 322.608 25.2151Z" fill="#2998FF"/>
</svg>
