<svg width="38" height="28" viewBox="0 0 38 28" fill="none" xmlns="http://www.w3.org/2000/svg">
<g clip-path="url(#clip0_5_33)">
<path d="M11.0637 12.5312C12.6237 13.1162 13.8425 14.0913 14.72 15.4563C15.695 16.7238 16.1825 18.1375 16.1825 19.6975C16.1825 22.0375 15.4513 23.89 13.9888 25.255C12.6238 26.62 10.6738 27.3025 8.13875 27.3025C5.60375 27.3025 3.65375 26.5225 2.28875 24.9625C1.02125 23.4025 0.3875 21.355 0.3875 18.82C0.3875 15.7975 1.5575 12.8237 3.8975 9.89875C6.335 6.97375 9.40625 3.9025 13.1112 0.685001L17.3525 3.46375C14.525 6.97375 12.4287 9.99625 11.0637 12.5312ZM30.8075 12.5312C32.3675 13.1162 33.5862 14.0913 34.4637 15.4563C35.4387 16.7238 35.9263 18.1375 35.9263 19.6975C35.9263 22.0375 35.195 23.89 33.7325 25.255C32.3675 26.62 30.4175 27.3025 27.8825 27.3025C25.3475 27.3025 23.3975 26.5225 22.0325 24.9625C20.765 23.4025 20.1312 21.355 20.1312 18.82C20.1312 15.7975 21.3012 12.8237 23.6412 9.89875C26.0787 6.97375 29.15 3.9025 32.855 0.685001L37.0962 3.46375C34.2687 6.97375 32.1725 9.99625 30.8075 12.5312Z" fill="#AFB6BD" fill-opacity="0.38"/>
</g>
<defs>
<clipPath id="clip0_5_33">
<rect width="38" height="28" fill="white"/>
</clipPath>
</defs>
</svg>
