<svg width="75" height="75" viewBox="0 0 75 75" fill="none" xmlns="http://www.w3.org/2000/svg">
<g clip-path="url(#clip0_29_721)">
<rect width="75" height="75" rx="37.5" fill="#0085FF"/>
<path d="M52.345 25.146C51.0517 26.4393 49.8553 27.9913 48.756 29.802C47.7213 31.6127 47.0423 33.4233 46.719 35.234C49.1117 35.234 51.084 35.913 52.636 37.271C54.2527 38.629 55.061 40.5367 55.061 42.994C55.061 45.3867 54.3173 47.3913 52.83 49.008C51.4073 50.56 49.532 51.336 47.204 51.336C44.876 51.336 42.9683 50.5277 41.481 48.911C40.0583 47.2297 39.347 45.1927 39.347 42.8C39.347 38.7907 40.317 34.943 42.257 31.257C44.197 27.5063 46.6543 24.5963 49.629 22.527L52.345 25.146ZM33.624 25.146C32.3307 26.4393 31.1343 27.9913 30.035 29.802C29.0003 31.6127 28.3213 33.4233 27.998 35.234C30.3907 35.234 32.363 35.913 33.915 37.271C35.5317 38.629 36.34 40.5367 36.34 42.994C36.34 45.3867 35.5963 47.3913 34.109 49.008C32.6863 50.56 30.811 51.336 28.483 51.336C26.155 51.336 24.2473 50.5277 22.76 48.911C21.3373 47.2297 20.626 45.1927 20.626 42.8C20.626 38.7907 21.596 34.943 23.536 31.257C25.476 27.5063 27.9333 24.5963 30.908 22.527L33.624 25.146Z" fill="white"/>
</g>
<defs>
<clipPath id="clip0_29_721">
<rect width="75" height="75" rx="37.5" fill="white"/>
</clipPath>
</defs>
</svg>
