<svg width="20" height="20" viewBox="0 0 20 20" fill="none" xmlns="http://www.w3.org/2000/svg">
<path d="M18.6128 20L12.9772 14.3642C12.319 14.9077 11.562 15.333 10.7063 15.6402C9.85058 15.9474 8.96535 16.101 8.05062 16.101C5.80053 16.101 3.89624 15.322 2.33774 13.7639C0.779248 12.2059 0 10.3021 0 8.05246C0 5.80307 0.779028 3.89859 2.33708 2.33902C3.89514 0.779674 5.79899 0 8.04864 0C10.2981 0 12.2026 0.779234 13.7622 2.3377C15.3215 3.89617 16.1012 5.80044 16.1012 8.05049C16.1012 8.99066 15.9435 9.88859 15.628 10.7443C15.3122 11.6 14.8911 12.3442 14.3645 12.977L20 18.6124L18.6128 20ZM8.05062 14.1266C9.7469 14.1266 11.1836 13.5379 12.3608 12.3606C13.5382 11.1834 14.1268 9.74675 14.1268 8.05049C14.1268 6.35423 13.5382 4.91753 12.3608 3.74039C11.1836 2.56304 9.7469 1.97436 8.05062 1.97436C6.35433 1.97436 4.91761 2.56304 3.74045 3.74039C2.56308 4.91753 1.97439 6.35423 1.97439 8.05049C1.97439 9.74675 2.56308 11.1834 3.74045 12.3606C4.91761 13.5379 6.35433 14.1266 8.05062 14.1266Z" fill="#5F6368"/>
</svg>
