<svg width="75" height="70" viewBox="0 0 75 70" fill="none" xmlns="http://www.w3.org/2000/svg">
<mask id="path-1-inside-1_23_668" fill="white">
<path d="M60.0402 46.7997L72.4156 34.347C74.0915 32.6558 75.0202 30.3679 74.9997 27.9956C74.9762 25.6203 74.0065 23.3527 72.2984 21.6907C70.5903 20.0344 68.2963 19.1146 65.9085 19.1263C63.5207 19.1437 61.2355 20.1072 59.5656 21.8043L53.9785 27.4251L51.8338 21.5016L62.7505 11.4879C63.4009 10.8941 63.6646 9.98882 63.439 9.14178C63.2104 8.29183 62.5308 7.6369 61.6694 7.44188L29.398 0.0629202C28.6919 -0.103001 27.9448 0.0629202 27.3794 0.517008L0.896714 21.4662C0.217003 22.0047 -0.114096 22.8692 0.0353839 23.7191C0.181871 24.572 0.78541 25.2764 1.60871 25.5558L13.2836 29.5466L17.0777 43.0649C17.2769 43.7984 17.8248 44.3864 18.5455 44.6455C21.0183 45.5041 23.5818 46.0805 26.1868 46.3629C24.9855 49.1573 21.505 52.2137 15.6279 55.6545C14.7343 54.7405 13.6005 54.1001 12.3553 53.8061C11.7371 53.6547 11.0867 53.7508 10.5417 54.071L7.64125 55.768C6.85604 56.2337 6.41075 57.107 6.49573 58.0122C5.30919 58.5856 4.04937 58.999 2.75145 59.2377C2.12155 59.2871 1.64104 59.8198 1.65574 60.4457C1.67039 61.0744 2.17432 61.5809 2.80718 61.6013H2.86578C4.401 61.3713 5.89228 60.9172 7.28973 60.2477C5.61387 61.2287 3.82963 62.0175 1.97219 62.5939C1.65578 62.6637 1.3833 62.8587 1.21632 63.1324C1.04932 63.406 0.999516 63.7349 1.08155 64.0464C1.16358 64.3549 1.36866 64.6198 1.647 64.777C1.92826 64.9371 2.26225 64.975 2.57283 64.8847C4.70868 64.2269 6.75947 63.3245 8.68142 62.1893L8.78396 62.3639C7.49782 63.2168 6.11199 63.9125 4.65882 64.4364C4.04063 64.6605 3.72128 65.3387 3.94688 65.953C4.17247 66.5672 4.85508 66.8845 5.47333 66.6603C7.06421 66.0869 8.58181 65.333 9.99396 64.4074L10.7879 65.7493L14.5381 63.5574C16.3311 62.5124 17.3096 60.4952 17.0138 58.4518C16.9581 58.2014 16.8819 57.9598 16.7882 57.724C23.7699 53.6518 27.4933 50.1471 28.6566 46.5464C29.1517 46.5668 29.6498 46.5901 30.1683 46.5901C31.9057 46.5842 33.6401 46.4416 35.357 46.1651L30.64 50.9127C28.097 53.4858 27.3587 57.3195 28.762 60.6439C30.1654 63.9681 33.438 66.1309 37.0648 66.1309H37.1498C39.5376 66.1163 41.8228 65.1528 43.4927 63.4529L51.3448 55.5503V70L55.6047 65.3106L59.8646 69.9942V58.5922L67.6491 66.3264L67.3239 60.0187L73.6698 60.3418L60.0402 46.7997ZM13.3278 61.5169L11.86 62.3756C11.8571 61.8312 11.4557 61.3742 10.9166 61.2927L10.6412 60.8299C10.858 60.469 10.858 60.0236 10.6442 59.6627C10.4303 59.3017 10.0348 59.0863 9.6158 59.098L9.56599 59.0106H9.56306C9.91757 58.5391 9.85018 57.8725 9.40485 57.4824L11.7516 56.1085L11.7633 56.0968L11.7604 56.0997C12.4753 56.2657 13.1403 56.5975 13.697 57.072C13.5417 57.4038 13.5593 57.788 13.7409 58.1024C13.9226 58.4197 14.2478 58.6264 14.614 58.6613C14.6228 58.705 14.6492 58.7399 14.655 58.7836L14.6521 58.7806C14.8132 59.8752 14.2888 60.958 13.3278 61.5169ZM68.0032 33.1041H68.0061C66.4592 33.302 64.8889 32.9498 63.5793 32.1057L68.8411 27.4716C69.3861 28.9066 69.8109 31.2469 68.0091 33.1041H68.0032ZM61.4991 23.2796C61.502 23.2738 61.5049 23.268 61.5049 23.2622C62.7062 22.1415 64.2853 21.5098 65.9318 21.4953H65.9933C68.384 21.4866 70.5931 22.7615 71.765 24.8311C72.9398 26.9007 72.8959 29.439 71.6507 31.4678L71.639 31.4737C71.5833 31.5231 71.5189 31.5552 71.4603 31.6046L71.4632 31.6017C71.9203 29.2993 71.4808 26.9094 70.2298 24.9184L69.4798 23.7482L61.8475 30.4636C60.3035 28.3532 60.1689 25.5326 61.4991 23.2796ZM58.2177 26.5282C58.1913 28.9179 59.1347 31.2205 60.8311 32.9116C60.8369 32.9175 60.8369 32.9262 60.8428 32.932C60.8487 32.9378 60.8545 32.9408 60.8604 32.9437C60.8662 32.9495 60.8867 32.9757 60.9014 32.9902L60.9043 32.9931C62.5831 34.6319 64.842 35.546 67.1946 35.5431C67.4465 35.5431 67.6985 35.4965 67.9504 35.4761L56.1315 47.3609C53.5181 46.9214 51.5171 45.9201 50.2339 44.3366V44.3395C49.0209 42.7123 48.3061 40.7708 48.183 38.7507C48.1215 38.2121 47.8724 37.7115 47.4798 37.3331L58.2177 26.5282ZM14.3352 27.4888C14.2473 27.4218 14.1535 27.3607 14.0539 27.3083L2.37901 23.3175L28.8639 2.36836L61.1323 9.74441L50.2157 19.7603C50.1043 19.8709 50.0077 19.9932 49.9227 20.1213C49.8319 20.1591 49.7469 20.2057 49.6707 20.2639C39.4606 28.9095 29.8475 30.2075 23.3111 29.6546C23.3286 25.9608 26.1735 22.8723 27.5387 21.6149L30.3953 23.8854L32.6747 21.0531C34.1454 19.228 33.8495 16.5646 32.0126 15.1033C30.1756 13.6421 27.4949 13.9361 26.024 15.7612L23.7417 18.5935L25.652 20.11C23.4927 22.1651 21.1049 25.5417 20.9468 29.3487V29.3517C18.8461 29.0373 16.7923 28.4464 14.8469 27.5993C14.6858 27.5236 14.51 27.4858 14.3342 27.4887L14.3352 27.4888ZM27.0946 18.2262L27.8886 17.2424C28.1962 16.8552 28.6503 16.6078 29.1455 16.5554C29.6406 16.4943 30.1387 16.6369 30.5254 16.9513C31.3311 17.5975 31.4629 18.7676 30.8154 19.5739L30.0244 20.5578L27.0946 18.2262ZM19.3686 42.4244L16.0579 30.6237C17.7279 31.1855 19.4447 31.596 21.1879 31.8521C21.4253 32.8796 21.8266 33.8635 22.3774 34.7659C22.7407 35.3626 23.1098 35.9476 23.4702 36.5182C25.1782 39.2253 26.6695 41.6239 26.6783 44.04C24.188 43.7868 21.7359 43.2452 19.3686 42.4244ZM29.0604 44.2029C29.1249 41.0737 27.3612 38.2327 25.4861 35.2607C25.1316 34.6989 24.7712 34.1284 24.4167 33.5433C24.1501 33.098 23.9245 32.6235 23.7487 32.1345C24.4636 32.184 25.2019 32.216 25.9783 32.216C32.4502 32.216 40.8971 30.2832 49.8944 23.1398L52.124 29.2933L40.9119 40.573L38.4303 43.0706C35.3892 43.938 32.2251 44.3222 29.064 44.2058L29.0604 44.2029ZM41.7876 61.7905H41.7906C40.563 63.0422 38.8813 63.7524 37.1234 63.764C35.3714 63.7582 33.6867 63.0829 32.4211 61.8779C29.8135 59.3308 29.7726 55.1684 32.3332 52.5751L40.6922 44.1658C41.3133 46.1393 42.289 47.9848 43.5752 49.6119C45.1514 51.5418 47.1642 53.0758 49.4464 54.0917L41.7876 61.7905ZM51.2244 52.2985C48.9597 51.4369 46.9616 50.0018 45.4293 48.1331C44.067 46.3982 43.1001 44.3868 42.605 42.2386L45.8131 39.0105C45.983 41.4818 46.8737 43.8483 48.3767 45.8247C49.868 47.5858 51.8895 48.8258 54.1425 49.3614L51.2244 52.2985ZM57.4795 58.5888V63.8429L57.3711 63.7235H57.3682C56.917 63.2258 56.2754 62.9434 55.6015 62.9434C54.9276 62.9434 54.2831 63.2258 53.8319 63.7235L53.7235 63.8429V53.1541L57.2627 49.5912L57.4766 55.7768H57.4795C57.4971 56.26 57.8135 56.682 58.2735 56.8422C57.7696 57.2846 57.4824 57.9222 57.4795 58.5888ZM65.636 58.3414C65.1585 58.8158 64.9065 59.4679 64.9388 60.1374L64.9475 60.2975L61.546 56.918V56.9151C61.0655 56.4435 60.4064 56.1961 59.7295 56.2368C59.8174 56.068 59.8614 55.8817 59.8584 55.6925L59.6534 49.766L67.6021 57.6604L67.4439 57.6517C66.7701 57.6284 66.1195 57.8786 65.636 58.3414Z"/>
</mask>
<path d="M60.0402 46.7997L72.4156 34.347C74.0915 32.6558 75.0202 30.3679 74.9997 27.9956C74.9762 25.6203 74.0065 23.3527 72.2984 21.6907C70.5903 20.0344 68.2963 19.1146 65.9085 19.1263C63.5207 19.1437 61.2355 20.1072 59.5656 21.8043L53.9785 27.4251L51.8338 21.5016L62.7505 11.4879C63.4009 10.8941 63.6646 9.98882 63.439 9.14178C63.2104 8.29183 62.5308 7.6369 61.6694 7.44188L29.398 0.0629202C28.6919 -0.103001 27.9448 0.0629202 27.3794 0.517008L0.896714 21.4662C0.217003 22.0047 -0.114096 22.8692 0.0353839 23.7191C0.181871 24.572 0.78541 25.2764 1.60871 25.5558L13.2836 29.5466L17.0777 43.0649C17.2769 43.7984 17.8248 44.3864 18.5455 44.6455C21.0183 45.5041 23.5818 46.0805 26.1868 46.3629C24.9855 49.1573 21.505 52.2137 15.6279 55.6545C14.7343 54.7405 13.6005 54.1001 12.3553 53.8061C11.7371 53.6547 11.0867 53.7508 10.5417 54.071L7.64125 55.768C6.85604 56.2337 6.41075 57.107 6.49573 58.0122C5.30919 58.5856 4.04937 58.999 2.75145 59.2377C2.12155 59.2871 1.64104 59.8198 1.65574 60.4457C1.67039 61.0744 2.17432 61.5809 2.80718 61.6013H2.86578C4.401 61.3713 5.89228 60.9172 7.28973 60.2477C5.61387 61.2287 3.82963 62.0175 1.97219 62.5939C1.65578 62.6637 1.3833 62.8587 1.21632 63.1324C1.04932 63.406 0.999516 63.7349 1.08155 64.0464C1.16358 64.3549 1.36866 64.6198 1.647 64.777C1.92826 64.9371 2.26225 64.975 2.57283 64.8847C4.70868 64.2269 6.75947 63.3245 8.68142 62.1893L8.78396 62.3639C7.49782 63.2168 6.11199 63.9125 4.65882 64.4364C4.04063 64.6605 3.72128 65.3387 3.94688 65.953C4.17247 66.5672 4.85508 66.8845 5.47333 66.6603C7.06421 66.0869 8.58181 65.333 9.99396 64.4074L10.7879 65.7493L14.5381 63.5574C16.3311 62.5124 17.3096 60.4952 17.0138 58.4518C16.9581 58.2014 16.8819 57.9598 16.7882 57.724C23.7699 53.6518 27.4933 50.1471 28.6566 46.5464C29.1517 46.5668 29.6498 46.5901 30.1683 46.5901C31.9057 46.5842 33.6401 46.4416 35.357 46.1651L30.64 50.9127C28.097 53.4858 27.3587 57.3195 28.762 60.6439C30.1654 63.9681 33.438 66.1309 37.0648 66.1309H37.1498C39.5376 66.1163 41.8228 65.1528 43.4927 63.4529L51.3448 55.5503V70L55.6047 65.3106L59.8646 69.9942V58.5922L67.6491 66.3264L67.3239 60.0187L73.6698 60.3418L60.0402 46.7997ZM13.3278 61.5169L11.86 62.3756C11.8571 61.8312 11.4557 61.3742 10.9166 61.2927L10.6412 60.8299C10.858 60.469 10.858 60.0236 10.6442 59.6627C10.4303 59.3017 10.0348 59.0863 9.6158 59.098L9.56599 59.0106H9.56306C9.91757 58.5391 9.85018 57.8725 9.40485 57.4824L11.7516 56.1085L11.7633 56.0968L11.7604 56.0997C12.4753 56.2657 13.1403 56.5975 13.697 57.072C13.5417 57.4038 13.5593 57.788 13.7409 58.1024C13.9226 58.4197 14.2478 58.6264 14.614 58.6613C14.6228 58.705 14.6492 58.7399 14.655 58.7836L14.6521 58.7806C14.8132 59.8752 14.2888 60.958 13.3278 61.5169ZM68.0032 33.1041H68.0061C66.4592 33.302 64.8889 32.9498 63.5793 32.1057L68.8411 27.4716C69.3861 28.9066 69.8109 31.2469 68.0091 33.1041H68.0032ZM61.4991 23.2796C61.502 23.2738 61.5049 23.268 61.5049 23.2622C62.7062 22.1415 64.2853 21.5098 65.9318 21.4953H65.9933C68.384 21.4866 70.5931 22.7615 71.765 24.8311C72.9398 26.9007 72.8959 29.439 71.6507 31.4678L71.639 31.4737C71.5833 31.5231 71.5189 31.5552 71.4603 31.6046L71.4632 31.6017C71.9203 29.2993 71.4808 26.9094 70.2298 24.9184L69.4798 23.7482L61.8475 30.4636C60.3035 28.3532 60.1689 25.5326 61.4991 23.2796ZM58.2177 26.5282C58.1913 28.9179 59.1347 31.2205 60.8311 32.9116C60.8369 32.9175 60.8369 32.9262 60.8428 32.932C60.8487 32.9378 60.8545 32.9408 60.8604 32.9437C60.8662 32.9495 60.8867 32.9757 60.9014 32.9902L60.9043 32.9931C62.5831 34.6319 64.842 35.546 67.1946 35.5431C67.4465 35.5431 67.6985 35.4965 67.9504 35.4761L56.1315 47.3609C53.5181 46.9214 51.5171 45.9201 50.2339 44.3366V44.3395C49.0209 42.7123 48.3061 40.7708 48.183 38.7507C48.1215 38.2121 47.8724 37.7115 47.4798 37.3331L58.2177 26.5282ZM14.3352 27.4888C14.2473 27.4218 14.1535 27.3607 14.0539 27.3083L2.37901 23.3175L28.8639 2.36836L61.1323 9.74441L50.2157 19.7603C50.1043 19.8709 50.0077 19.9932 49.9227 20.1213C49.8319 20.1591 49.7469 20.2057 49.6707 20.2639C39.4606 28.9095 29.8475 30.2075 23.3111 29.6546C23.3286 25.9608 26.1735 22.8723 27.5387 21.6149L30.3953 23.8854L32.6747 21.0531C34.1454 19.228 33.8495 16.5646 32.0126 15.1033C30.1756 13.6421 27.4949 13.9361 26.024 15.7612L23.7417 18.5935L25.652 20.11C23.4927 22.1651 21.1049 25.5417 20.9468 29.3487V29.3517C18.8461 29.0373 16.7923 28.4464 14.8469 27.5993C14.6858 27.5236 14.51 27.4858 14.3342 27.4887L14.3352 27.4888ZM27.0946 18.2262L27.8886 17.2424C28.1962 16.8552 28.6503 16.6078 29.1455 16.5554C29.6406 16.4943 30.1387 16.6369 30.5254 16.9513C31.3311 17.5975 31.4629 18.7676 30.8154 19.5739L30.0244 20.5578L27.0946 18.2262ZM19.3686 42.4244L16.0579 30.6237C17.7279 31.1855 19.4447 31.596 21.1879 31.8521C21.4253 32.8796 21.8266 33.8635 22.3774 34.7659C22.7407 35.3626 23.1098 35.9476 23.4702 36.5182C25.1782 39.2253 26.6695 41.6239 26.6783 44.04C24.188 43.7868 21.7359 43.2452 19.3686 42.4244ZM29.0604 44.2029C29.1249 41.0737 27.3612 38.2327 25.4861 35.2607C25.1316 34.6989 24.7712 34.1284 24.4167 33.5433C24.1501 33.098 23.9245 32.6235 23.7487 32.1345C24.4636 32.184 25.2019 32.216 25.9783 32.216C32.4502 32.216 40.8971 30.2832 49.8944 23.1398L52.124 29.2933L40.9119 40.573L38.4303 43.0706C35.3892 43.938 32.2251 44.3222 29.064 44.2058L29.0604 44.2029ZM41.7876 61.7905H41.7906C40.563 63.0422 38.8813 63.7524 37.1234 63.764C35.3714 63.7582 33.6867 63.0829 32.4211 61.8779C29.8135 59.3308 29.7726 55.1684 32.3332 52.5751L40.6922 44.1658C41.3133 46.1393 42.289 47.9848 43.5752 49.6119C45.1514 51.5418 47.1642 53.0758 49.4464 54.0917L41.7876 61.7905ZM51.2244 52.2985C48.9597 51.4369 46.9616 50.0018 45.4293 48.1331C44.067 46.3982 43.1001 44.3868 42.605 42.2386L45.8131 39.0105C45.983 41.4818 46.8737 43.8483 48.3767 45.8247C49.868 47.5858 51.8895 48.8258 54.1425 49.3614L51.2244 52.2985ZM57.4795 58.5888V63.8429L57.3711 63.7235H57.3682C56.917 63.2258 56.2754 62.9434 55.6015 62.9434C54.9276 62.9434 54.2831 63.2258 53.8319 63.7235L53.7235 63.8429V53.1541L57.2627 49.5912L57.4766 55.7768H57.4795C57.4971 56.26 57.8135 56.682 58.2735 56.8422C57.7696 57.2846 57.4824 57.9222 57.4795 58.5888ZM65.636 58.3414C65.1585 58.8158 64.9065 59.4679 64.9388 60.1374L64.9475 60.2975L61.546 56.918V56.9151C61.0655 56.4435 60.4064 56.1961 59.7295 56.2368C59.8174 56.068 59.8614 55.8817 59.8584 55.6925L59.6534 49.766L67.6021 57.6604L67.4439 57.6517C66.7701 57.6284 66.1195 57.8786 65.636 58.3414Z" fill="#0278FA" stroke="#0085FF" stroke-width="0.6" mask="url(#path-1-inside-1_23_668)"/>
</svg>
