<svg width="61" height="73" viewBox="0 0 61 73" fill="none" xmlns="http://www.w3.org/2000/svg">
<path d="M11.2113 18.2683H50.2098C50.6021 18.2683 50.916 17.9584 50.916 17.5733V13.6356C50.916 13.2524 50.6041 12.9406 50.2209 12.9406H11.2113C10.8281 12.9406 10.5162 13.2524 10.5162 13.6356V17.5733C10.5162 17.9565 10.8281 18.2683 11.2113 18.2683ZM49.5148 14.3307V16.8783H11.9063V14.3307H49.5148Z" fill="#0278FA" stroke="#0278FA" stroke-width="0.3"/>
<path d="M1.54505 72.15H59.876C60.2571 72.15 60.5726 71.8396 60.56 71.4524V67.6285C60.56 67.2454 60.2481 66.9335 59.8649 66.9335H1.54505C1.16187 66.9335 0.85 67.2454 0.85 67.6285V71.455C0.85 71.8382 1.16187 72.15 1.54505 72.15ZM59.181 68.3347V70.7599H2.25121V68.3347H59.181Z" fill="#0278FA" stroke="#0278FA" stroke-width="0.3"/>
<path d="M11.0109 68.2795L11.0108 68.2798L11.0192 68.2825C11.1004 68.3096 11.1831 68.3236 11.2669 68.3236C11.5457 68.3236 11.8029 68.1687 11.9168 67.8981L11.9169 67.8981L11.9184 67.8941L14.1542 62.121L14.1544 62.1211L14.1566 62.1143C14.1837 62.0331 14.1977 61.9504 14.1977 61.8667V17.5734C14.1977 17.1902 13.8858 16.8783 13.5027 16.8783C13.1195 16.8783 12.8076 17.1902 12.8076 17.5734V61.7273L10.6154 67.3741L10.6152 67.3745C10.4737 67.7423 10.6587 68.1386 11.0109 68.2795Z" fill="#0278FA" stroke="#0278FA" stroke-width="0.3"/>
<path d="M20.4938 67.885L20.4938 67.885L20.4945 67.8868C20.6071 68.1542 20.8732 68.3234 21.1444 68.3234C21.236 68.3234 21.3226 68.3104 21.4004 68.2793C21.7574 68.1365 21.9254 67.7254 21.7843 67.3725L21.784 67.3719L19.4481 61.5989L19.4482 61.5989L19.4473 61.5969C19.3354 61.3312 19.0815 61.1603 18.7974 61.1603H13.4916C13.1084 61.1603 12.7965 61.4722 12.7965 61.8554C12.7965 62.2385 13.1084 62.5504 13.4916 62.5504H18.3293L20.4938 67.885Z" fill="#0278FA" stroke="#0278FA" stroke-width="0.3"/>
<path d="M49.5027 67.8832L49.5027 67.8832L49.5043 67.887C49.6162 68.1527 49.8701 68.3236 50.1542 68.3236C50.2362 68.3236 50.3224 68.3101 50.399 68.2795C50.7511 68.1387 50.9369 67.7309 50.7943 67.3733C50.7942 67.3731 50.7941 67.3729 50.794 67.3726L48.6023 61.7273V17.5734C48.6023 17.1902 48.2904 16.8783 47.9073 16.8783C47.5241 16.8783 47.2122 17.1902 47.2122 17.5734V61.8555C47.2122 61.9393 47.2262 62.022 47.2533 62.1032L47.2531 62.1033L47.2558 62.1102L49.5027 67.8832Z" fill="#0278FA" stroke="#0278FA" stroke-width="0.3"/>
<path d="M39.637 67.3607L39.6368 67.3612C39.4964 67.7123 39.6619 68.1209 40.015 68.2658C40.1052 68.3096 40.1941 68.3233 40.2766 68.3233C40.5508 68.3233 40.801 68.1631 40.9349 67.8819L40.9351 67.882L40.9384 67.8738L43.1029 62.5392H47.9295C48.3127 62.5392 48.6246 62.2273 48.6246 61.8441C48.6246 61.4609 48.3127 61.1491 47.9295 61.1491H42.6237C42.3396 61.1491 42.0857 61.3199 41.9738 61.5857L41.9737 61.5857L41.973 61.5876L39.637 67.3607Z" fill="#0278FA" stroke="#0278FA" stroke-width="0.3"/>
<path d="M42.0955 61.8666C42.0955 62.2498 42.4074 62.5617 42.7905 62.5617C43.1738 62.5617 43.4871 62.2491 43.4745 61.853V42.601C43.4745 42.2178 43.1626 41.9059 42.7794 41.9059H18.8085C18.4254 41.9059 18.1135 42.2178 18.1135 42.601V61.8555C18.1135 62.2387 18.4254 62.5506 18.8085 62.5506C19.1917 62.5506 19.5036 62.2387 19.5036 61.8555V43.296H42.0955V61.8666Z" fill="#0278FA" stroke="#0278FA" stroke-width="0.3"/>
<path d="M1.85649 26.6996H13.5027C13.8878 26.6996 14.1977 26.3858 14.1977 25.9935C14.1977 25.6103 13.8858 25.2984 13.5027 25.2984H2.55154V22.8287H13.5138C13.897 22.8287 14.2088 22.5168 14.2088 22.1337C14.2088 21.7505 13.897 21.4386 13.5138 21.4386H1.85649C1.47332 21.4386 1.16145 21.7505 1.16145 22.1337V26.0046C1.16145 26.3878 1.47332 26.6996 1.85649 26.6996Z" fill="#0278FA" stroke="#0278FA" stroke-width="0.3"/>
<path d="M3.53074 67.6283C3.53074 68.0115 3.84261 68.3234 4.22579 68.3234C4.60275 68.3234 4.93361 68.0169 4.92083 67.6257V25.9935C4.92083 25.6104 4.60896 25.2985 4.22579 25.2985C3.84261 25.2985 3.53074 25.6104 3.53074 25.9935V67.6283Z" fill="#0278FA" stroke="#0278FA" stroke-width="0.3"/>
<path d="M47.9184 26.6998H59.5646C59.9549 26.6998 60.2708 26.3918 60.2708 26.0158V22.1449C60.2708 21.7617 59.9589 21.4499 59.5757 21.4499H47.9184C47.5352 21.4499 47.2234 21.7617 47.2234 22.1449C47.2234 22.5281 47.5352 22.8399 47.9184 22.8399H58.8695V25.3097H47.9184C47.5352 25.3097 47.2234 25.6215 47.2234 26.0047C47.2234 26.3879 47.5352 26.6998 47.9184 26.6998Z" fill="#0278FA" stroke="#0278FA" stroke-width="0.3"/>
<path d="M56.5003 67.6283C56.5003 68.0115 56.8121 68.3234 57.1953 68.3234C57.5785 68.3234 57.8904 68.0115 57.8904 67.6283V25.9935C57.8904 25.6104 57.5785 25.2985 57.1953 25.2985C56.8121 25.2985 56.5003 25.6104 56.5003 25.9935V67.6283Z" fill="#0278FA" stroke="#0278FA" stroke-width="0.3"/>
<path d="M38.5245 67.634L38.5246 67.634V67.6284V57.9177C38.5246 53.5968 35.0091 50.0814 30.6883 50.0814C26.3674 50.0814 22.852 53.5968 22.852 57.9177V67.6284C22.852 68.0116 23.1639 68.3235 23.5471 68.3235H37.8184C38.2026 68.3235 38.5105 68.0117 38.5245 67.634ZM37.1233 66.9334H24.2533V57.9177C24.2533 54.3742 27.134 51.4827 30.6883 51.4827C34.2317 51.4827 37.1233 54.3743 37.1233 57.9177V66.9334Z" fill="#0278FA" stroke="#0278FA" stroke-width="0.3"/>
<path d="M17.9075 28.9688H24.0477C24.4308 28.9688 24.7427 28.6569 24.7427 28.2738V22.1337C24.7427 21.7505 24.4308 21.4386 24.0477 21.4386H17.9075C17.5244 21.4386 17.2125 21.7505 17.2125 22.1337V28.2738C17.2125 28.6569 17.5244 28.9688 17.9075 28.9688ZM23.3526 22.8287V27.5787H18.6026V22.8287H23.3526Z" fill="#0278FA" stroke="#0278FA" stroke-width="0.3"/>
<path d="M17.9075 38.7796H24.0477C24.4308 38.7796 24.7427 38.4677 24.7427 38.0846V31.9445C24.7427 31.5613 24.4308 31.2494 24.0477 31.2494H17.9075C17.5244 31.2494 17.2125 31.5613 17.2125 31.9445V38.0846C17.2125 38.4677 17.5244 38.7796 17.9075 38.7796ZM23.3526 32.6284V37.3784H18.6026V32.6284H23.3526Z" fill="#0278FA" stroke="#0278FA" stroke-width="0.3"/>
<path d="M27.6405 28.9688H33.7806C34.1638 28.9688 34.4757 28.6569 34.4757 28.2738V22.1337C34.4757 21.7505 34.1638 21.4386 33.7806 21.4386H27.6405C27.2573 21.4386 26.9455 21.7505 26.9455 22.1337V28.2738C26.9455 28.6569 27.2573 28.9688 27.6405 28.9688ZM33.0856 22.8287V27.5787H28.3355V22.8287H33.0856Z" fill="#0278FA" stroke="#0278FA" stroke-width="0.3"/>
<path d="M27.6405 38.7796H33.7806C34.1638 38.7796 34.4757 38.4677 34.4757 38.0846V31.9445C34.4757 31.5613 34.1638 31.2494 33.7806 31.2494H27.6405C27.2573 31.2494 26.9455 31.5613 26.9455 31.9445V38.0846C26.9455 38.4677 27.2573 38.7796 27.6405 38.7796ZM33.0856 32.6284V37.3784H28.3355V32.6284H33.0856Z" fill="#0278FA" stroke="#0278FA" stroke-width="0.3"/>
<path d="M37.3735 28.9688H43.5136C43.9037 28.9688 44.2214 28.6604 44.2086 28.2712V22.1337C44.2086 21.7505 43.8967 21.4386 43.5136 21.4386H37.3735C36.9903 21.4386 36.6784 21.7505 36.6784 22.1337V28.2738C36.6784 28.6569 36.9903 28.9688 37.3735 28.9688ZM42.8185 22.8287V27.5787H38.0685V22.8287H42.8185Z" fill="#0278FA" stroke="#0278FA" stroke-width="0.3"/>
<path d="M37.3735 38.7796H43.5136C43.9037 38.7796 44.2214 38.4711 44.2086 38.082V31.9445C44.2086 31.5613 43.8967 31.2494 43.5136 31.2494H37.3735C36.9903 31.2494 36.6784 31.5613 36.6784 31.9445V38.0846C36.6784 38.4677 36.9903 38.7796 37.3735 38.7796ZM42.8185 32.6284V37.3784H38.0685V32.6284H42.8185Z" fill="#0278FA" stroke="#0278FA" stroke-width="0.3"/>
<path d="M39.7443 1.91984L39.7449 1.91944C39.9832 1.73717 40.0846 1.4253 39.9844 1.13895C39.8865 0.859054 39.6202 0.660303 39.32 0.660303H30.7105C30.3274 0.660303 30.0155 0.972174 30.0155 1.35535V13.6356C30.0155 14.0187 30.3274 14.3306 30.7105 14.3306C31.0937 14.3306 31.4056 14.0187 31.4056 13.6356V8.1905H39.32C39.6045 8.1905 39.8726 8.00749 39.9725 7.73641C40.0734 7.46241 39.9845 7.16662 39.7783 6.97423L39.7784 6.97418L39.7751 6.97127L36.676 4.24496L39.7443 1.91984ZM35.1035 4.72549L35.1035 4.72551L35.1054 4.72718L37.4649 6.80041H31.3945V2.06152H37.2281L35.1371 3.64878C34.9739 3.76816 34.8792 3.96751 34.8656 4.17071L34.8653 4.17069V4.18069C34.8653 4.38825 34.9487 4.5848 35.1035 4.72549Z" fill="#0278FA" stroke="#0278FA" stroke-width="0.3"/>
</svg>
