<svg width="75" height="75" viewBox="0 0 75 75" fill="none" xmlns="http://www.w3.org/2000/svg">
<path d="M23.2037 54.9954H17.8015C17.2899 54.9954 16.8763 55.4089 16.8763 55.9205V62.8363C16.8763 63.348 17.2899 63.7615 17.8015 63.7615H23.2037C23.7153 63.7615 24.1289 63.348 24.1289 62.8363V55.9205C24.1289 55.4089 23.7153 54.9954 23.2037 54.9954ZM22.2785 61.9102H18.7267V56.8457H22.2785V61.9102Z" fill="#0278FA"/>
<path d="M51.1119 63.7606H56.5141C57.0257 63.7606 57.4393 63.347 57.4393 62.8354V55.9205C57.4393 55.4089 57.0257 54.9954 56.5141 54.9954H51.1119C50.6003 54.9954 50.1867 55.4089 50.1867 55.9205V62.8363C50.1867 63.347 50.6003 63.7606 51.1119 63.7606ZM52.0371 56.8457H55.5889V61.9111H52.0371V56.8457Z" fill="#0278FA"/>
<path d="M23.2037 44.6982H17.8015C17.2899 44.6982 16.8763 45.1118 16.8763 45.6234V52.5392C16.8763 53.0508 17.2899 53.4644 17.8015 53.4644H23.2037C23.7153 53.4644 24.1289 53.0508 24.1289 52.5392V45.6234C24.1289 45.1118 23.7153 44.6982 23.2037 44.6982ZM22.2785 51.614H18.7267V46.5486H22.2785V51.614Z" fill="#0278FA"/>
<path d="M23.2037 34.4009H17.8015C17.2899 34.4009 16.8763 34.8144 16.8763 35.3261V42.2418C16.8763 42.7535 17.2899 43.167 17.8015 43.167H23.2037C23.7153 43.167 24.1289 42.7535 24.1289 42.2418V35.3261C24.1289 34.8144 23.7153 34.4009 23.2037 34.4009ZM22.2785 41.3167H18.7267V36.2513H22.2785V41.3167Z" fill="#0278FA"/>
<path d="M28.7761 53.4644H34.1783C34.6899 53.4644 35.1035 53.0508 35.1035 52.5392V45.6234C35.1035 45.1118 34.6899 44.6982 34.1783 44.6982H28.7761C28.2645 44.6982 27.851 45.1118 27.851 45.6234V52.5392C27.851 53.0499 28.2654 53.4644 28.7761 53.4644ZM29.7013 46.5486H33.2531V51.614H29.7013V46.5486Z" fill="#0278FA"/>
<path d="M28.7761 43.167H34.1783C34.6899 43.167 35.1035 42.7535 35.1035 42.2418V35.3261C35.1035 34.8144 34.6899 34.4009 34.1783 34.4009H28.7761C28.2645 34.4009 27.851 34.8144 27.851 35.3261V42.2418C27.851 42.7526 28.2654 43.167 28.7761 43.167ZM29.7013 36.2513H33.2531V41.3167H29.7013V36.2513Z" fill="#0278FA"/>
<path d="M45.5386 44.6982H40.1365C39.6248 44.6982 39.2113 45.1118 39.2113 45.6234V52.5392C39.2113 53.0508 39.6248 53.4644 40.1365 53.4644H45.5386C46.0503 53.4644 46.4638 53.0508 46.4638 52.5392V45.6234C46.4638 45.1118 46.0503 44.6982 45.5386 44.6982ZM44.6134 51.614H41.0616V46.5486H44.6134V51.614Z" fill="#0278FA"/>
<path d="M39.2122 35.3261V42.2418C39.2122 42.7535 39.6257 43.167 40.1374 43.167H45.5395C46.0512 43.167 46.4647 42.7535 46.4647 42.2418V35.3261C46.4647 34.8144 46.0512 34.4009 45.5395 34.4009H40.1374C39.6257 34.4009 39.2122 34.8144 39.2122 35.3261ZM41.0626 36.2513H44.6144V41.3167H41.0626V36.2513Z" fill="#0278FA"/>
<path d="M51.1119 53.4644H56.5141C57.0257 53.4644 57.4393 53.0508 57.4393 52.5392V45.6234C57.4393 45.1118 57.0257 44.6982 56.5141 44.6982H51.1119C50.6003 44.6982 50.1867 45.1118 50.1867 45.6234V52.5392C50.1867 53.0499 50.6003 53.4644 51.1119 53.4644ZM52.0371 46.5486H55.5889V51.614H52.0371V46.5486Z" fill="#0278FA"/>
<path d="M51.1119 43.167H56.5141C57.0257 43.167 57.4393 42.7535 57.4393 42.2418V35.3261C57.4393 34.8144 57.0257 34.4009 56.5141 34.4009H51.1119C50.6003 34.4009 50.1867 34.8144 50.1867 35.3261V42.2418C50.1867 42.7526 50.6003 43.167 51.1119 43.167ZM52.0371 36.2513H55.5889V41.3167H52.0371V36.2513Z" fill="#0278FA"/>
<path d="M37.1925 30.3865C40.7841 30.3865 43.7058 27.4647 43.7058 23.8731C43.7058 20.2806 40.7841 17.3589 37.1925 17.3589C33.6009 17.3589 30.6792 20.2806 30.6792 23.8731C30.6792 27.4647 33.6009 30.3865 37.1925 30.3865ZM37.1925 19.2093C39.7636 19.2093 41.8554 21.302 41.8554 23.8731C41.8554 26.4442 39.7636 28.5361 37.1925 28.5361C34.6214 28.5361 32.5295 26.4442 32.5295 23.8731C32.5295 21.302 34.6214 19.2093 37.1925 19.2093Z" fill="#0278FA"/>
<path d="M37.2656 25.0916H39.5443C40.0559 25.0916 40.4695 24.678 40.4695 24.1664C40.4695 23.6547 40.0559 23.2412 39.5443 23.2412H38.1908V21.7433C38.1908 21.2317 37.7772 20.8181 37.2656 20.8181C36.754 20.8181 36.3404 21.2317 36.3404 21.7433V24.1664C36.3404 24.6771 36.754 25.0916 37.2656 25.0916Z" fill="#0278FA"/>
<path d="M74.201 64.4426C74.201 61.914 72.1434 59.8564 69.6148 59.8564C67.0863 59.8564 65.0287 61.914 65.0287 64.4426C65.0287 66.6547 66.6024 68.506 68.6897 68.9353V73.1477H63.3661V30.9684C63.3661 30.4567 62.9526 30.0432 62.4409 30.0432H53.1446V21.3399C53.1446 21.0383 52.9975 20.7552 52.7496 20.5822L38.2103 10.4051V7.79055H44.2989C44.8106 7.79055 45.2241 7.37699 45.2241 6.86536V1.91005C45.2241 1.39842 44.8106 0.984863 44.2989 0.984863H37.2851C36.7734 0.984863 36.3599 1.39842 36.3599 1.91005V10.4024L21.6392 20.5794C21.3885 20.7524 21.2395 21.0365 21.2395 21.3399V30.0432H11.9442C11.4325 30.0432 11.019 30.4567 11.019 30.9684V73.1477H5.51227V68.9353C7.59949 68.506 9.17324 66.6538 9.17324 64.4426C9.17324 61.914 7.11562 59.8564 4.58708 59.8564C2.05854 59.8564 0 61.914 0 64.4426C0 66.6547 1.57467 68.506 3.66189 68.9353V73.1477H1.1093C0.597671 73.1477 0.184112 73.5612 0.184112 74.0729C0.184112 74.5845 0.597671 74.9981 1.1093 74.9981H73.2749C73.7865 74.9981 74.2001 74.5845 74.2001 74.0729C74.2001 73.5612 73.7865 73.1477 73.2749 73.1477H70.54V68.9353C72.6273 68.506 74.201 66.6547 74.201 64.4426ZM1.85038 64.4426C1.85038 62.9336 3.0781 61.7068 4.58708 61.7068C6.09606 61.7068 7.32286 62.9336 7.32286 64.4426C7.32286 65.9516 6.09606 67.1793 4.58708 67.1793C3.0781 67.1793 1.85038 65.9516 1.85038 64.4426ZM43.3747 5.93925H38.2112V2.83431H43.3747V5.93925ZM12.8694 31.8935H22.1657C22.6773 31.8935 23.0908 31.48 23.0908 30.9684V21.8247L37.2823 12.0131L51.2952 21.8219V30.9693C51.2952 31.4809 51.7088 31.8945 52.2204 31.8945H61.5167V73.1477H46.5342V55.904C46.5342 55.3924 46.1206 54.9788 45.609 54.9788H28.7761C28.2645 54.9788 27.8509 55.3924 27.8509 55.904V73.1477H12.8694V31.8935ZM38.2112 56.8292H44.6838V73.1477H38.2112V56.8292ZM36.3608 73.1477H29.7022V56.8292H36.3608V73.1477ZM66.8791 64.4426C66.8791 62.9336 68.1059 61.7068 69.6148 61.7068C71.1238 61.7068 72.3506 62.9336 72.3506 64.4426C72.3506 65.9516 71.1238 67.1793 69.6148 67.1793C68.1059 67.1793 66.8791 65.9516 66.8791 64.4426Z" fill="#0278FA"/>
</svg>
