<svg width="66" height="69" viewBox="0 0 66 69" fill="none" xmlns="http://www.w3.org/2000/svg">
<mask id="path-1-inside-1_17_16" fill="white">
<path d="M17.7132 44.7158L33.0027 53.5092L48.3592 44.6787C48.8916 44.3715 49.5754 44.5511 49.8809 45.0815C49.9827 45.2554 50.0322 45.4496 50.0293 45.638L50.0322 50.6374C50.0322 51.0779 49.7732 51.4605 49.4008 51.6402L33.5579 60.7519C33.1971 60.9577 32.7694 60.9432 32.4349 60.749L16.5257 51.5994C16.1707 51.3937 15.9699 51.0227 15.9699 50.6401L15.967 45.6407C15.967 45.0263 16.4675 44.5278 17.0843 44.5278C17.3171 44.5278 17.5324 44.5974 17.7099 44.7191L17.7132 44.7158ZM32.6392 68.9445C22.5748 65.4986 14.1022 59.444 8.30653 50.402C3.04024 42.1917 0 31.5404 0 18.1714C0 17.557 0.500448 17.0585 1.11727 17.0585H1.16964C5.50197 16.902 9.41212 15.0907 12.2783 12.233C15.1646 9.35801 16.9888 5.43093 17.1256 1.08391C17.1431 0.483983 17.6377 0.00579604 18.2371 0.00579604L47.8738 0C48.4906 0 48.991 0.498486 48.991 1.11291L48.9881 1.18246C49.0929 5.4892 50.8823 9.37569 53.7278 12.2247C56.5996 15.1026 60.5449 16.9256 64.9176 17.0589C65.5199 17.0763 66 17.569 66 18.166C66.0058 31.5328 62.9624 42.1863 57.6964 50.3966C51.8977 59.4393 43.4282 65.4936 33.3638 68.9391C33.1194 69.0232 32.8662 69.0174 32.6393 68.9391L32.6392 68.9445ZM10.1835 49.2104C15.6186 57.6848 23.5558 63.4059 33.0034 66.7128C42.4481 63.403 50.3881 57.6819 55.8233 49.2104C60.7259 41.5647 63.6151 31.6532 63.7663 19.2138C59.2333 18.8139 55.1656 16.817 52.1512 13.7913C49.1427 10.7743 47.17 6.73132 46.8179 2.22746H19.2877C18.889 6.73993 16.8872 10.7887 13.8584 13.8054C10.8325 16.8195 6.77073 18.8106 2.24028 19.2106C2.39157 31.647 5.28074 41.5615 10.1833 49.2072L10.1835 49.2104ZM17.7135 33.4561L33.003 42.2496L48.3595 33.419C48.8919 33.1118 49.5757 33.2915 49.8812 33.8219C49.983 33.9958 50.0325 34.1899 50.0296 34.3783L50.0325 39.3777C50.0325 39.8182 49.7735 40.2008 49.4011 40.3805L33.5582 49.4923C33.1974 49.698 32.7697 49.6835 32.4351 49.4894L16.526 40.3398C16.171 40.134 15.9702 39.763 15.9702 39.3805L15.9673 34.3811C15.9673 33.7666 16.4678 33.2681 17.0846 33.2681C17.3174 33.2681 17.5327 33.3377 17.7102 33.4594L17.7135 33.4561ZM32.4443 44.4924L18.2051 36.3022V38.7396L33.003 47.2489L47.8008 38.7396V36.3022L33.5676 44.4865C33.233 44.6807 32.8053 44.6981 32.4445 44.4894L32.4443 44.4924ZM32.4443 55.7491L18.2051 47.5589V49.9933L33.003 58.5026L47.8008 49.9933V47.5589L33.5676 55.7432C33.233 55.9374 32.8053 55.9548 32.4445 55.7461L32.4443 55.7491Z"/>
</mask>
<path d="M17.7132 44.7158L33.0027 53.5092L48.3592 44.6787C48.8916 44.3715 49.5754 44.5511 49.8809 45.0815C49.9827 45.2554 50.0322 45.4496 50.0293 45.638L50.0322 50.6374C50.0322 51.0779 49.7732 51.4605 49.4008 51.6402L33.5579 60.7519C33.1971 60.9577 32.7694 60.9432 32.4349 60.749L16.5257 51.5994C16.1707 51.3937 15.9699 51.0227 15.9699 50.6401L15.967 45.6407C15.967 45.0263 16.4675 44.5278 17.0843 44.5278C17.3171 44.5278 17.5324 44.5974 17.7099 44.7191L17.7132 44.7158ZM32.6392 68.9445C22.5748 65.4986 14.1022 59.444 8.30653 50.402C3.04024 42.1917 0 31.5404 0 18.1714C0 17.557 0.500448 17.0585 1.11727 17.0585H1.16964C5.50197 16.902 9.41212 15.0907 12.2783 12.233C15.1646 9.35801 16.9888 5.43093 17.1256 1.08391C17.1431 0.483983 17.6377 0.00579604 18.2371 0.00579604L47.8738 0C48.4906 0 48.991 0.498486 48.991 1.11291L48.9881 1.18246C49.0929 5.4892 50.8823 9.37569 53.7278 12.2247C56.5996 15.1026 60.5449 16.9256 64.9176 17.0589C65.5199 17.0763 66 17.569 66 18.166C66.0058 31.5328 62.9624 42.1863 57.6964 50.3966C51.8977 59.4393 43.4282 65.4936 33.3638 68.9391C33.1194 69.0232 32.8662 69.0174 32.6393 68.9391L32.6392 68.9445ZM10.1835 49.2104C15.6186 57.6848 23.5558 63.4059 33.0034 66.7128C42.4481 63.403 50.3881 57.6819 55.8233 49.2104C60.7259 41.5647 63.6151 31.6532 63.7663 19.2138C59.2333 18.8139 55.1656 16.817 52.1512 13.7913C49.1427 10.7743 47.17 6.73132 46.8179 2.22746H19.2877C18.889 6.73993 16.8872 10.7887 13.8584 13.8054C10.8325 16.8195 6.77073 18.8106 2.24028 19.2106C2.39157 31.647 5.28074 41.5615 10.1833 49.2072L10.1835 49.2104ZM17.7135 33.4561L33.003 42.2496L48.3595 33.419C48.8919 33.1118 49.5757 33.2915 49.8812 33.8219C49.983 33.9958 50.0325 34.1899 50.0296 34.3783L50.0325 39.3777C50.0325 39.8182 49.7735 40.2008 49.4011 40.3805L33.5582 49.4923C33.1974 49.698 32.7697 49.6835 32.4351 49.4894L16.526 40.3398C16.171 40.134 15.9702 39.763 15.9702 39.3805L15.9673 34.3811C15.9673 33.7666 16.4678 33.2681 17.0846 33.2681C17.3174 33.2681 17.5327 33.3377 17.7102 33.4594L17.7135 33.4561ZM32.4443 44.4924L18.2051 36.3022V38.7396L33.003 47.2489L47.8008 38.7396V36.3022L33.5676 44.4865C33.233 44.6807 32.8053 44.6981 32.4445 44.4894L32.4443 44.4924ZM32.4443 55.7491L18.2051 47.5589V49.9933L33.003 58.5026L47.8008 49.9933V47.5589L33.5676 55.7432C33.233 55.9374 32.8053 55.9548 32.4445 55.7461L32.4443 55.7491Z" fill="#0278FA"/>
<path d="M34.0097 8.75177L34.0088 8.65177L33.8527 8.65314L33.9193 8.79441L34.0097 8.75177ZM37.5798 16.3247L37.4893 16.3674L37.5128 16.4171L37.5673 16.424L37.5798 16.3247ZM45.9183 17.3681L45.9059 17.4673L45.9061 17.4673L45.9183 17.3681ZM46.8901 18.6085L46.7909 18.5962L46.7908 18.5965L46.8901 18.6085ZM46.5002 19.3244L46.4363 19.2473L46.432 19.2513L46.5002 19.3244ZM40.3669 34.4124L40.4156 34.325L40.415 34.3247L40.3669 34.4124ZM33.0057 30.3752L33.0538 30.2875L33.0057 30.2611L32.9576 30.2875L33.0057 30.3752ZM25.6445 34.4124L25.5964 34.3247L25.5964 34.3247L25.6445 34.4124ZM24.1316 33.9747L24.0438 34.0226L24.0439 34.0228L24.1316 33.9747ZM24.0152 33.2328L24.1132 33.2527L24.1134 33.2517L24.0152 33.2328ZM25.5951 25.0106L25.6933 25.0295L25.7037 24.9753L25.6634 24.9376L25.5951 25.0106ZM19.4646 19.2838L19.3962 19.3567L19.3964 19.3568L19.4646 19.2838ZM19.4152 17.7129L19.3425 17.6443L19.3423 17.6445L19.4152 17.7129ZM20.0931 17.3709L20.0807 17.2717L20.0805 17.2717L20.0931 17.3709ZM28.4317 16.3247L28.4441 16.4239L28.4987 16.417L28.5221 16.3673L28.4317 16.3247ZM32.0017 8.75169L32.0922 8.79434L32.0923 8.79407L32.0017 8.75169ZM33.4827 8.21843L33.5256 8.12807L33.525 8.12782L33.4827 8.21843ZM34.0181 8.75169L34.0189 8.85169L34.174 8.85033L34.1088 8.70965L34.0181 8.75169ZM35.8282 17.8205L35.7377 17.8631L35.7993 17.9938L35.8999 17.8901L35.8282 17.8205ZM33.003 11.827L33.0934 11.7844L33.003 11.5925L32.9125 11.7844L33.003 11.827ZM30.2156 17.7394L30.1249 17.6966L30.1222 17.7038L30.2156 17.7394ZM29.3049 18.4524L29.2928 18.3531L29.2924 18.3531L29.3049 18.4524ZM22.7176 19.2784L22.7052 19.1791L22.4933 19.2057L22.6494 19.3514L22.7176 19.2784ZM27.5417 23.7821L27.4734 23.8553L27.4751 23.8567L27.5417 23.7821ZM27.8966 24.8197L27.9949 24.8385L27.9949 24.8384L27.8966 24.8197ZM26.6484 31.3203L26.5502 31.3015L26.5101 31.5102L26.6965 31.408L26.6484 31.3203ZM32.4704 28.1265L32.4224 28.0388L32.4224 28.0388L32.4704 28.1265ZM38.4496 23.8024L38.3813 23.7293L38.3812 23.7294L38.4496 23.8024ZM43.294 19.2754L43.3623 19.3484L43.5182 19.2027L43.3064 19.1762L43.294 19.2754ZM36.7067 18.4494L36.6934 18.5485L36.6943 18.5486L36.7067 18.4494ZM35.8338 17.8147L35.9243 17.7722L35.8628 17.6412L35.7621 17.745L35.8338 17.8147ZM33.9193 8.79441L37.4893 16.3674L37.6702 16.2821L34.1002 8.70913L33.9193 8.79441ZM37.5673 16.424L45.9059 17.4673L45.9307 17.2688L37.5922 16.2255L37.5673 16.424ZM45.9061 17.4673C46.4628 17.536 46.8596 18.0401 46.7909 18.5962L46.9894 18.6208C47.0718 17.9539 46.5958 17.3508 45.9306 17.2688L45.9061 17.4673ZM46.7908 18.5965C46.7591 18.8601 46.6269 19.0893 46.4364 19.2474L46.5641 19.4013C46.7926 19.2116 46.9513 18.9366 46.9894 18.6205L46.7908 18.5965ZM46.432 19.2513L40.348 24.9376L40.4846 25.0837L46.5685 19.3974L46.432 19.2513ZM41.0934 34.4329C40.8516 34.4779 40.6135 34.4354 40.4156 34.325L40.3182 34.4997C40.5567 34.6328 40.8423 34.6831 41.13 34.6295L41.0934 34.4329ZM40.415 34.3247L33.0538 30.2875L32.9576 30.4629L40.3188 34.5001L40.415 34.3247ZM32.9576 30.2875L25.5964 34.3247L25.6926 34.5001L33.0538 30.4629L32.9576 30.2875ZM25.5964 34.3247C25.1062 34.5939 24.4864 34.4141 24.2193 33.9267L24.0439 34.0228C24.3645 34.6078 25.1063 34.8221 25.6927 34.5L25.5964 34.3247ZM24.2194 33.9269C24.1025 33.7125 24.0685 33.4727 24.1132 33.2527L23.9172 33.2129C23.863 33.4798 23.9047 33.7675 24.0438 34.0226L24.2194 33.9269ZM24.1134 33.2517L25.6933 25.0295L25.4969 24.9918L23.917 33.2139L24.1134 33.2517ZM25.6634 24.9376L19.5329 19.2107L19.3964 19.3568L25.5268 25.0837L25.6634 24.9376ZM19.5331 19.2108C19.1254 18.8285 19.1068 18.1876 19.4881 17.7814L19.3423 17.6445C18.8856 18.131 18.9077 18.8985 19.3962 19.3567L19.5331 19.2108ZM19.4879 17.7816C19.6572 17.6024 19.8769 17.4993 20.1057 17.4701L20.0805 17.2717C19.8088 17.3064 19.5456 17.4293 19.3425 17.6443L19.4879 17.7816ZM20.1056 17.4702L28.4441 16.4239L28.4192 16.2254L20.0807 17.2717L20.1056 17.4702ZM28.5221 16.3673L32.0922 8.79434L31.9113 8.70905L28.3412 16.282L28.5221 16.3673ZM32.0923 8.79407C32.3277 8.29084 32.9314 8.07141 33.4404 8.30904L33.525 8.12782C32.9167 7.84379 32.1936 8.10545 31.9111 8.70932L32.0923 8.79407ZM33.4398 8.30878C33.6634 8.41484 33.8325 8.58919 33.9273 8.79374L34.1088 8.70965C33.9941 8.46208 33.7908 8.25387 33.5256 8.12808L33.4398 8.30878ZM34.0172 8.6517L34.0088 8.65177L34.0106 8.85176L34.0189 8.85169L34.0172 8.6517ZM35.9186 17.7778L33.0934 11.7844L32.9125 11.8697L35.7377 17.8631L35.9186 17.7778ZM32.9125 11.7844L30.1252 17.6967L30.3061 17.782L33.0934 11.8697L32.9125 11.7844ZM30.1222 17.7038C29.9922 18.0445 29.6821 18.3056 29.2928 18.3531L29.317 18.5516C29.7831 18.4948 30.1538 18.182 30.309 17.775L30.1222 17.7038ZM29.2924 18.3531L22.7052 19.1791L22.73 19.3776L29.3173 18.5516L29.2924 18.3531ZM22.6494 19.3514L27.4734 23.8552L27.6099 23.709L22.7858 19.2053L22.6494 19.3514ZM27.4751 23.8567C27.7326 24.0868 27.8671 24.4403 27.7984 24.801L27.9949 24.8384C28.0775 24.405 27.9153 23.9818 27.6083 23.7076L27.4751 23.8567ZM27.7984 24.8008L26.5502 31.3015L26.7466 31.3392L27.9948 24.8385L27.7984 24.8008ZM26.6965 31.408L32.5185 28.2142L32.4224 28.0388L26.6003 31.2326L26.6965 31.408ZM32.5185 28.2142C32.8125 28.0533 33.1808 28.0427 33.4963 28.2143L33.5919 28.0387C33.2149 27.8335 32.7743 27.8461 32.4224 28.0388L32.5185 28.2142ZM38.2162 24.8015C38.1551 24.4709 38.2561 24.1204 38.5179 23.8754L38.3812 23.7294C38.0669 24.0235 37.9468 24.4439 38.0195 24.8378L38.2162 24.8015ZM38.5178 23.8755L43.3623 19.3484L43.2257 19.2023L38.3813 23.7293L38.5178 23.8755ZM43.3064 19.1762L36.7191 18.3502L36.6943 18.5486L43.2815 19.3746L43.3064 19.1762ZM36.72 18.3503C36.3849 18.3052 36.0777 18.0988 35.9243 17.7722L35.7433 17.8572C35.9274 18.2493 36.2953 18.495 36.6934 18.5485L36.72 18.3503ZM35.7621 17.745L35.7564 17.7508L35.8999 17.8901L35.9056 17.8843L35.7621 17.745ZM17.7132 44.7158L17.8129 44.5424L17.6806 44.4663L17.5723 44.5738L17.7132 44.7158ZM33.0027 53.5092L32.903 53.6826L33.0027 53.7399L33.1024 53.6826L33.0027 53.5092ZM48.3592 44.6787L48.4589 44.852L48.4591 44.8519L48.3592 44.6787ZM49.8809 45.0815L49.7076 45.1814L49.7083 45.1826L49.8809 45.0815ZM50.0293 45.638L49.8293 45.6349L49.8293 45.6381L50.0293 45.638ZM50.0322 50.6374H50.2322V50.6373L50.0322 50.6374ZM49.4008 51.6402L49.3139 51.4601L49.3074 51.4632L49.3011 51.4668L49.4008 51.6402ZM33.5579 60.7519L33.657 60.9257L33.6576 60.9253L33.5579 60.7519ZM32.4349 60.749L32.5352 60.576L32.5346 60.5757L32.4349 60.749ZM16.5257 51.5994L16.4254 51.7725L16.426 51.7728L16.5257 51.5994ZM15.9699 50.6401H16.1699V50.64L15.9699 50.6401ZM15.967 45.6407H15.767V45.6408L15.967 45.6407ZM17.7099 44.7191L17.5967 44.884L17.7333 44.9776L17.8507 44.861L17.7099 44.7191ZM32.6392 68.9445L32.5744 69.1337L32.8335 69.2225L32.8391 68.9486L32.6392 68.9445ZM8.30653 50.402L8.47491 50.2941L8.47488 50.294L8.30653 50.402ZM1.16964 17.0585V17.2586L1.17686 17.2584L1.16964 17.0585ZM12.2783 12.233L12.1371 12.0913L12.1371 12.0914L12.2783 12.233ZM17.1256 1.08391L17.3255 1.0902L17.3255 1.08972L17.1256 1.08391ZM18.2371 0.00579604V0.205796H18.2371L18.2371 0.00579604ZM47.8738 0V-0.2H47.8737L47.8738 0ZM48.991 1.11291L49.191 1.12128V1.11291H48.991ZM48.9881 1.18246L48.7879 1.17408L48.7882 1.18733L48.9881 1.18246ZM53.7278 12.2247L53.8694 12.0835L53.8693 12.0834L53.7278 12.2247ZM64.9176 17.0589L64.9116 17.2588L64.9119 17.2588L64.9176 17.0589ZM66 18.166H65.8V18.1661L66 18.166ZM57.6964 50.3966L57.5281 50.2886L57.5281 50.2886L57.6964 50.3966ZM33.3638 68.9391L33.299 68.7499L33.2987 68.75L33.3638 68.9391ZM32.6393 68.9391L32.7045 68.75L32.445 68.6606L32.4393 68.935L32.6393 68.9391ZM10.1835 49.2104L9.98401 49.224L9.98749 49.2752L10.0152 49.3184L10.1835 49.2104ZM33.0034 66.7128L32.9373 66.9015L33.0035 66.9247L33.0696 66.9015L33.0034 66.7128ZM55.8233 49.2104L55.9916 49.3184L55.9916 49.3184L55.8233 49.2104ZM63.7663 19.2138L63.9663 19.2163L63.9686 19.0309L63.7839 19.0146L63.7663 19.2138ZM52.1512 13.7913L52.2929 13.6502L52.2928 13.6501L52.1512 13.7913ZM46.8179 2.22746L47.0173 2.21187L47.0029 2.02746H46.8179V2.22746ZM19.2877 2.22746V2.02746H19.1045L19.0884 2.20986L19.2877 2.22746ZM13.8584 13.8054L13.7173 13.6637L13.7173 13.6637L13.8584 13.8054ZM2.24028 19.2106L2.22269 19.0114L2.03804 19.0277L2.04029 19.213L2.24028 19.2106ZM10.1833 49.2072L10.3829 49.1936L10.3794 49.1424L10.3517 49.0992L10.1833 49.2072ZM17.7135 33.4561L17.8132 33.2827L17.681 33.2067L17.5726 33.3141L17.7135 33.4561ZM33.003 42.2496L32.9033 42.4229L33.003 42.4803L33.1027 42.4229L33.003 42.2496ZM48.3595 33.419L48.4592 33.5924L48.4594 33.5922L48.3595 33.419ZM49.8812 33.8219L49.7079 33.9217L49.7086 33.9229L49.8812 33.8219ZM50.0296 34.3783L49.8296 34.3752L49.8296 34.3784L50.0296 34.3783ZM50.0325 39.3777H50.2325V39.3776L50.0325 39.3777ZM49.4011 40.3805L49.3142 40.2004L49.3077 40.2035L49.3014 40.2071L49.4011 40.3805ZM33.5582 49.4923L33.6573 49.666L33.6579 49.6656L33.5582 49.4923ZM32.4351 49.4894L32.5355 49.3164L32.5349 49.316L32.4351 49.4894ZM16.526 40.3398L16.4257 40.5128L16.4263 40.5132L16.526 40.3398ZM15.9702 39.3805H16.1702V39.3803L15.9702 39.3805ZM15.9673 34.3811H15.7673V34.3812L15.9673 34.3811ZM17.7102 33.4594L17.597 33.6244L17.7335 33.718L17.851 33.6014L17.7102 33.4594ZM32.4443 44.4924L32.3446 44.6658L32.6277 44.8286L32.6441 44.5025L32.4443 44.4924ZM18.2051 36.3022L18.3048 36.1288L18.0051 35.9564V36.3022H18.2051ZM18.2051 38.7396H18.0051V38.8553L18.1054 38.913L18.2051 38.7396ZM33.003 47.2489L32.9033 47.4223L33.003 47.4796L33.1027 47.4223L33.003 47.2489ZM47.8008 38.7396L47.9005 38.913L48.0008 38.8553V38.7396H47.8008ZM47.8008 36.3022H48.0008V35.9565L47.7011 36.1288L47.8008 36.3022ZM33.5676 44.4865L33.4679 44.3131L33.4672 44.3135L33.5676 44.4865ZM32.4445 44.4894L32.5446 44.3163L32.2612 44.1523L32.2447 44.4794L32.4445 44.4894ZM32.4443 55.7491L32.3446 55.9225L32.6277 56.0853L32.6441 55.7592L32.4443 55.7491ZM18.2051 47.5589L18.3048 47.3855L18.0051 47.2131V47.5589H18.2051ZM18.2051 49.9933H18.0051V50.109L18.1054 50.1667L18.2051 49.9933ZM33.003 58.5026L32.9033 58.676L33.003 58.7333L33.1027 58.676L33.003 58.5026ZM47.8008 49.9933L47.9005 50.1667L48.0008 50.109V49.9933H47.8008ZM47.8008 47.5589H48.0008V47.2132L47.7011 47.3855L47.8008 47.5589ZM33.5676 55.7432L33.4679 55.5698L33.4672 55.5702L33.5676 55.7432ZM32.4445 55.7461L32.5446 55.573L32.2612 55.409L32.2447 55.7361L32.4445 55.7461ZM17.6135 44.8891L32.903 53.6826L33.1024 53.3358L17.8129 44.5424L17.6135 44.8891ZM33.1024 53.6826L48.4589 44.852L48.2595 44.5053L32.903 53.3358L33.1024 53.6826ZM48.4591 44.8519C48.8972 44.5991 49.458 44.7481 49.7076 45.1813L50.0542 44.9817C49.6927 44.3542 48.886 44.1438 48.2592 44.5054L48.4591 44.8519ZM49.7083 45.1826C49.7918 45.3251 49.8317 45.4832 49.8293 45.6349L50.2293 45.6411C50.2327 45.4159 50.1737 45.1858 50.0535 44.9804L49.7083 45.1826ZM49.8293 45.6381L49.8322 50.6375L50.2322 50.6373L50.2293 45.6379L49.8293 45.6381ZM49.8322 50.6374C49.8322 50.9978 49.6202 51.3123 49.3139 51.4601L49.4877 51.8203C49.9263 51.6087 50.2322 51.158 50.2322 50.6374H49.8322ZM49.3011 51.4668L33.4582 60.5786L33.6576 60.9253L49.5005 51.8135L49.3011 51.4668ZM33.4588 60.5782C33.1619 60.7475 32.8102 60.7356 32.5352 60.576L32.3345 60.922C32.7287 61.1508 33.2324 61.1678 33.657 60.9257L33.4588 60.5782ZM32.5346 60.5757L16.6254 51.4261L16.426 51.7728L32.3351 60.9224L32.5346 60.5757ZM16.626 51.4264C16.3342 51.2573 16.1699 50.9531 16.1699 50.6401H15.7699C15.7699 51.0923 16.0072 51.5301 16.4254 51.7725L16.626 51.4264ZM16.1699 50.64L16.167 45.6406L15.767 45.6408L15.7699 50.6402L16.1699 50.64ZM16.167 45.6407C16.167 45.1375 16.5772 44.7278 17.0843 44.7278V44.3278C16.3578 44.3278 15.767 44.9151 15.767 45.6407H16.167ZM17.0843 44.7278C17.2766 44.7278 17.4525 44.7851 17.5967 44.884L17.823 44.5541C17.6122 44.4096 17.3575 44.3278 17.0843 44.3278V44.7278ZM17.8507 44.861L17.8541 44.8577L17.5723 44.5738L17.569 44.5771L17.8507 44.861ZM32.704 68.7553C22.6763 65.3219 14.243 59.293 8.47491 50.2941L8.13815 50.5099C13.9614 59.595 22.4734 65.6752 32.5744 69.1337L32.704 68.7553ZM8.47488 50.294C3.23305 42.1218 0.2 31.5098 0.2 18.1714H-0.2C-0.2 31.571 2.84743 42.2615 8.13819 50.51L8.47488 50.294ZM0.2 18.1714C0.2 17.6682 0.610166 17.2585 1.11727 17.2585V16.8585C0.390729 16.8585 -0.2 17.4458 -0.2 18.1714H0.2ZM1.11727 17.2585H1.16964V16.8585H1.11727V17.2585ZM1.17686 17.2584C5.56133 17.1 9.51885 15.2667 12.4195 12.3747L12.1371 12.0914C9.30538 14.9147 5.44261 16.704 1.16242 16.8586L1.17686 17.2584ZM12.4194 12.3747C15.3404 9.46519 17.1871 5.49024 17.3255 1.0902L16.9257 1.07762C16.7906 5.37161 14.9888 9.25083 12.1371 12.0913L12.4194 12.3747ZM17.3255 1.08972C17.3398 0.598391 17.7454 0.205796 18.2371 0.205796V-0.194204C17.5299 -0.194204 16.9463 0.369575 16.9257 1.07809L17.3255 1.08972ZM18.2371 0.205796L47.8738 0.2L47.8737 -0.2L18.237 -0.194204L18.2371 0.205796ZM47.8738 0.2C48.3809 0.2 48.791 0.609681 48.791 1.11291H49.191C49.191 0.387291 48.6003 -0.2 47.8738 -0.2V0.2ZM48.7912 1.10455L48.7883 1.1741L49.188 1.19083L49.1909 1.12127L48.7912 1.10455ZM48.7882 1.18733C48.8942 5.54756 50.7061 9.4823 53.5863 12.3661L53.8693 12.0834C51.0585 9.26908 49.2915 5.43083 49.1881 1.1776L48.7882 1.18733ZM53.5862 12.366C56.4928 15.2788 60.4861 17.1239 64.9116 17.2588L64.9237 16.859C60.6036 16.7273 56.7063 14.9265 53.8694 12.0835L53.5862 12.366ZM64.9119 17.2588C65.407 17.2731 65.8 17.6782 65.8 18.166H66.2C66.2 17.4598 65.6329 16.8795 64.9234 16.859L64.9119 17.2588ZM65.8 18.1661C65.8058 31.5022 62.7696 42.1164 57.5281 50.2886L57.8648 50.5046C63.1552 42.2562 66.2058 31.5634 66.2 18.1659L65.8 18.1661ZM57.5281 50.2886C51.7569 59.2884 43.3267 65.3169 33.299 68.7499L33.4286 69.1283C43.5296 65.6702 52.0384 59.5903 57.8648 50.5046L57.5281 50.2886ZM33.2987 68.75C33.098 68.819 32.8907 68.8143 32.7045 68.75L32.5741 69.1282C32.8418 69.2205 33.1408 69.2273 33.4288 69.1283L33.2987 68.75ZM32.4393 68.935L32.4392 68.9404L32.8391 68.9486L32.8393 68.9432L32.4393 68.935ZM10.0152 49.3184C15.4776 57.8354 23.4536 63.5821 32.9373 66.9015L33.0695 66.524C23.658 63.2298 15.7596 57.5343 10.3519 49.1025L10.0152 49.3184ZM33.0696 66.9015C42.5503 63.5792 50.5291 57.8325 55.9916 49.3184L55.655 49.1024C50.2472 57.5313 42.3459 63.2269 32.9373 66.524L33.0696 66.9015ZM55.9916 49.3184C60.9182 41.6354 63.8148 31.6855 63.9663 19.2163L63.5663 19.2114C63.4155 31.6209 60.5336 41.4941 55.6549 49.1025L55.9916 49.3184ZM63.7839 19.0146C59.299 18.6189 55.2749 16.6434 52.2929 13.6502L52.0095 13.9325C55.0563 16.9907 59.1676 19.0089 63.7488 19.4131L63.7839 19.0146ZM52.2928 13.6501C49.3165 10.6654 47.3656 6.66641 47.0173 2.21187L46.6186 2.24304C46.9745 6.79624 48.9689 10.8832 52.0096 13.9325L52.2928 13.6501ZM46.8179 2.02746H19.2877V2.42746H46.8179V2.02746ZM19.0884 2.20986C18.6941 6.67369 16.714 10.679 13.7173 13.6637L13.9995 13.9471C17.0605 10.8984 19.084 6.80616 19.4869 2.24506L19.0884 2.20986ZM13.7173 13.6637C10.7235 16.6458 6.70509 18.6156 2.22269 19.0114L2.25786 19.4098C6.83638 19.0056 10.9414 16.9933 13.9995 13.9471L13.7173 13.6637ZM2.04029 19.213C2.19195 31.6792 5.08843 41.6321 10.015 49.3151L10.3517 49.0992C5.47305 41.4909 2.59119 31.6147 2.44026 19.2081L2.04029 19.213ZM9.98378 49.2207L9.98401 49.224L10.3831 49.1968L10.3829 49.1936L9.98378 49.2207ZM17.6138 33.6295L32.9033 42.4229L33.1027 42.0762L17.8132 33.2827L17.6138 33.6295ZM33.1027 42.4229L48.4592 33.5924L48.2598 33.2456L32.9033 42.0762L33.1027 42.4229ZM48.4594 33.5922C48.8975 33.3395 49.4583 33.4884 49.7079 33.9217L50.0545 33.722C49.693 33.0945 48.8863 32.8841 48.2595 33.2458L48.4594 33.5922ZM49.7086 33.9229C49.792 34.0654 49.832 34.2236 49.8296 34.3752L50.2296 34.3814C50.233 34.1563 50.174 33.9261 50.0538 33.7208L49.7086 33.9229ZM49.8296 34.3784L49.8325 39.3778L50.2325 39.3776L50.2296 34.3782L49.8296 34.3784ZM49.8325 39.3777C49.8325 39.7382 49.6205 40.0526 49.3142 40.2004L49.488 40.5606C49.9266 40.349 50.2325 39.8983 50.2325 39.3777H49.8325ZM49.3014 40.2071L33.4585 49.3189L33.6579 49.6656L49.5008 40.5539L49.3014 40.2071ZM33.4591 49.3185C33.1622 49.4879 32.8105 49.476 32.5355 49.3164L32.3348 49.6623C32.729 49.8911 33.2327 49.9082 33.6573 49.666L33.4591 49.3185ZM32.5349 49.316L16.6257 40.1664L16.4263 40.5132L32.3354 49.6627L32.5349 49.316ZM16.6263 40.1668C16.3345 39.9976 16.1702 39.6935 16.1702 39.3805H15.7702C15.7702 39.8326 16.0075 40.2704 16.4257 40.5128L16.6263 40.1668ZM16.1702 39.3803L16.1673 34.3809L15.7673 34.3812L15.7702 39.3806L16.1702 39.3803ZM16.1673 34.3811C16.1673 33.8778 16.5775 33.4681 17.0846 33.4681V33.0681C16.3581 33.0681 15.7673 33.6554 15.7673 34.3811H16.1673ZM17.0846 33.4681C17.2769 33.4681 17.4528 33.5254 17.597 33.6244L17.8233 33.2945C17.6125 33.15 17.3578 33.0681 17.0846 33.0681V33.4681ZM17.851 33.6014L17.8544 33.5981L17.5726 33.3141L17.5693 33.3174L17.851 33.6014ZM32.5441 44.3191L18.3048 36.1288L18.1054 36.4755L32.3446 44.6658L32.5441 44.3191ZM18.0051 36.3022V38.7396H18.4051V36.3022H18.0051ZM18.1054 38.913L32.9033 47.4223L33.1027 47.0755L18.3048 38.5662L18.1054 38.913ZM33.1027 47.4223L47.9005 38.913L47.7011 38.5662L32.9033 47.0755L33.1027 47.4223ZM48.0008 38.7396V36.3022H47.6008V38.7396H48.0008ZM47.7011 36.1288L33.4679 44.3131L33.6673 44.6599L47.9005 36.4756L47.7011 36.1288ZM33.4672 44.3135C33.1912 44.4737 32.8401 44.4872 32.5446 44.3163L32.3444 44.6625C32.7705 44.909 33.2747 44.8877 33.668 44.6595L33.4672 44.3135ZM32.2447 44.4794L32.2446 44.4824L32.6441 44.5025L32.6442 44.4994L32.2447 44.4794ZM32.5441 55.5758L18.3048 47.3855L18.1054 47.7322L32.3446 55.9225L32.5441 55.5758ZM18.0051 47.5589V49.9933H18.4051V47.5589H18.0051ZM18.1054 50.1667L32.9033 58.676L33.1027 58.3292L18.3048 49.8199L18.1054 50.1667ZM33.1027 58.676L47.9005 50.1667L47.7011 49.8199L32.9033 58.3292L33.1027 58.676ZM48.0008 49.9933V47.5589H47.6008V49.9933H48.0008ZM47.7011 47.3855L33.4679 55.5698L33.6673 55.9166L47.9005 47.7323L47.7011 47.3855ZM33.4672 55.5702C33.1912 55.7304 32.8401 55.7439 32.5446 55.573L32.3444 55.9192C32.7705 56.1657 33.2747 56.1444 33.668 55.9162L33.4672 55.5702ZM32.2447 55.7361L32.2446 55.7391L32.6441 55.7592L32.6442 55.7561L32.2447 55.7361Z" fill="white" mask="url(#path-1-inside-1_17_16)"/>
<path d="M14.2745 18.9691L14.2744 18.9691C14.048 18.8817 13.9 18.6629 13.9 18.4196C13.9 18.1768 14.0485 17.9574 14.2746 17.8706L32.2923 10.9387L14.2745 18.9691ZM14.2745 18.9691L20.9867 21.5516M14.2745 18.9691L20.9867 21.5516M20.9867 21.5516V29.2571C20.9867 29.4261 21.0587 29.5881 21.1858 29.6999C23.4145 31.6665 27.7537 32.875 32.4997 32.875C37.2457 32.875 41.5848 31.6661 43.8136 29.6995C43.9407 29.5878 44.0128 29.4262 44.0128 29.2566V21.5511L46.1391 20.7328V26.0174C45.4643 26.2603 44.9811 26.9124 44.9811 27.6766V32.5121C44.9811 32.8358 45.2402 33.1 45.5629 33.1H47.8794C48.2015 33.1 48.4612 32.8359 48.4612 32.5121V27.6766C48.4612 26.9124 47.9775 26.2603 47.3032 26.0174V20.2854L50.7254 18.9686L20.9867 21.5516ZM50.7254 17.8706C50.9514 17.9573 51.1 18.1762 51.1 18.4196C51.1 18.6624 50.9515 18.8818 50.7255 18.9686L50.7254 17.8706ZM50.7254 17.8706L32.7066 10.9387C32.5732 10.8871 32.4259 10.8871 32.2925 10.9386L50.7254 17.8706ZM32.5588 17.8348C32.237 17.8014 31.9537 18.0391 31.921 18.3601L31.921 18.3603C31.889 18.682 32.12 18.971 32.4407 19.0043L32.4408 19.0043L44.2184 20.2143L32.4997 24.7228L16.1159 18.4196L32.4997 12.1164L48.8836 18.4196L46.6427 19.2814L32.5588 17.8348ZM32.5588 17.8348L32.5485 17.9343L32.5587 17.8348L32.5588 17.8348ZM42.8497 28.982V21.999L32.7068 25.901C32.7067 25.901 32.7067 25.901 32.7066 25.901L32.7065 25.9011L32.6706 25.8077C32.6157 25.829 32.5577 25.8394 32.4997 25.8394L42.8497 28.982ZM42.8497 28.982C40.7817 30.6562 36.8582 31.6998 32.4997 31.6998C28.1413 31.6998 24.2178 30.6562 22.1498 28.982H42.8497ZM47.2977 31.9248H46.1446V27.6771C46.1446 27.3534 46.4048 27.0918 46.7214 27.0918C47.0381 27.0918 47.2982 27.353 47.2982 27.6771L47.2977 31.9248Z" fill="#0278FA" stroke="#0278FA" stroke-width="0.2"/>
</svg>
