<svg width="70" height="70" viewBox="0 0 70 70" fill="none" xmlns="http://www.w3.org/2000/svg">
<path d="M67.8689 64.1668V52.0727C69.0978 51.6994 70 50.5716 70 49.2261C70 47.5773 68.6622 46.2395 67.0133 46.2395H46.7833C46.6044 43.7429 45.6556 41.4486 44.1544 39.6208C49.3578 38.6409 53.6278 36.8754 56.2722 34.5654C56.4589 34.4021 56.5678 34.1688 56.5678 33.9199V19.3292L67.6978 15.0982C68.3122 14.8649 68.7089 14.2893 68.7089 13.636C68.7089 12.9827 68.3122 12.4072 67.6978 12.1738L36.3144 0.250826C35.4433 -0.0836088 34.5567 -0.0836088 33.6856 0.250826L2.30222 12.1738C1.68778 12.4072 1.29111 12.9827 1.29111 13.636C1.29111 14.2893 1.68778 14.8649 2.30222 15.0982L7.19444 16.957V30.8944C5.93444 31.2677 5.00111 32.4266 5.00111 33.8032V40.0097C5.00111 40.4841 5.38222 40.8653 5.85667 40.8653H10.2433C10.7178 40.8653 11.0989 40.4841 11.0989 40.0097V33.8032C11.0989 32.4188 10.1656 31.26 8.90556 30.8944V17.6103L13.4322 19.3292V33.9199C13.4322 34.1688 13.5411 34.4021 13.7278 34.5654C16.38 36.8754 20.6422 38.6409 25.8456 39.6208C24.3444 41.4486 23.3956 43.7429 23.2167 46.2395H11.8844C5.32778 46.2395 0 51.5672 0 58.1159C0 64.6724 5.32778 70 11.8844 70H67.0133C68.6622 70 70 68.6623 70 67.0134C70 65.6601 69.0978 64.5324 67.8689 64.1668ZM9.38778 33.8032V39.1542H6.70444V33.8032C6.70444 33.0644 7.30333 32.4655 8.04222 32.4655C8.78889 32.4655 9.38778 33.0644 9.38778 33.8032ZM12.8256 52.2127H17.1889V58.0926L15.6489 56.327C15.4856 56.1404 15.2522 56.0315 15.0033 56.0315C14.7544 56.0315 14.5211 56.1404 14.3578 56.327L12.8178 58.0926V52.2127H12.8256ZM11.6667 61.1725C12.0011 61.2969 12.3744 61.2036 12.6078 60.9314L15.0033 58.1859L17.3989 60.9314C17.5622 61.118 17.8033 61.2269 18.0444 61.2269C18.1456 61.2269 18.2467 61.2114 18.34 61.1725C18.6744 61.048 18.8922 60.7291 18.8922 60.3714V52.2127H24.3522C26.2656 56.1715 30.31 58.917 34.9922 58.917C39.6744 58.917 43.7189 56.1715 45.6322 52.2127H66.15V57.2681H51.5122C51.0378 57.2681 50.6567 57.6492 50.6567 58.1237C50.6567 58.5981 51.0378 58.9792 51.5122 58.9792H66.1578V64.0346H11.8844C8.62556 64.0346 5.98111 61.3825 5.98111 58.1314C5.98111 55.1371 8.22889 52.656 11.1222 52.2827V60.3869C11.1144 60.7291 11.3322 61.048 11.6667 61.1725ZM68.2889 49.2261C68.2889 49.9339 67.7133 50.5094 67.0056 50.5094H46.3167C46.5656 49.6928 46.7211 48.8295 46.7833 47.9506H67.0133C67.7211 47.9428 68.2889 48.5184 68.2889 49.2261ZM34.2922 1.84523C34.7744 1.65856 35.2256 1.65856 35.7078 1.84523L66.7411 13.636L35.7078 25.4268C35.2256 25.6135 34.7744 25.6135 34.2922 25.4268L11.7289 16.8559L35.0856 14.4838C35.5522 14.4371 35.8944 14.0171 35.8478 13.5505C35.8011 13.0838 35.3811 12.7416 34.9144 12.7883L8.16667 15.5026L3.25889 13.636L34.2922 1.84523ZM15.1356 19.9747L33.6856 27.0212C34.1211 27.1845 34.5567 27.2701 35 27.2701C35.4356 27.2701 35.8789 27.1845 36.3144 27.0212L54.8644 19.9747V33.5232C52.2511 35.6465 47.8644 37.3109 42.7 38.1353C40.6311 36.3543 37.94 35.2654 35 35.2654C32.06 35.2654 29.3689 36.3543 27.3 38.1353C22.1433 37.3031 17.7489 35.6465 15.1356 33.5232V19.9747ZM35 36.9687C40.5767 36.9687 45.1189 41.5108 45.1189 47.0873C45.1189 52.6638 40.5767 57.2059 35 57.2059C29.4233 57.2059 24.8811 52.6638 24.8811 47.0873C24.8811 41.5108 29.4233 36.9687 35 36.9687ZM67.0133 68.2889H11.8844C6.27667 68.2889 1.71111 63.7235 1.71111 58.1159C1.71111 52.5083 6.27667 47.9428 11.8844 47.9428H23.2167C23.2789 48.8295 23.4344 49.685 23.6833 50.5017H11.8844C7.68444 50.5017 4.27 53.916 4.27 58.1159C4.27 62.3158 7.68444 65.7301 11.8844 65.7301H67.0133C67.7211 65.7301 68.2967 66.3057 68.2967 67.0134C68.2889 67.7212 67.7211 68.2889 67.0133 68.2889ZM29.8744 50.3228H31.7644V52.2127C31.7644 53.0527 32.4489 53.7371 33.2889 53.7371H36.7111C37.5511 53.7371 38.2356 53.0527 38.2356 52.2127V50.3228H40.1256C40.9656 50.3228 41.65 49.6383 41.65 48.7984V45.3762C41.65 44.5363 40.9656 43.8518 40.1256 43.8518H38.2356V41.9619C38.2356 41.1219 37.5511 40.4375 36.7111 40.4375H33.2889C32.4489 40.4375 31.7644 41.1219 31.7644 41.9619V43.8518H29.8744C29.0344 43.8518 28.35 44.5363 28.35 45.3762V48.7984C28.3578 49.6383 29.0344 50.3228 29.8744 50.3228ZM30.0611 45.5629H32.62C33.0944 45.5629 33.4756 45.1818 33.4756 44.7074V42.1485H36.5244V44.7074C36.5244 45.1818 36.9056 45.5629 37.38 45.5629H39.9389V48.6117H37.38C36.9056 48.6117 36.5244 48.9928 36.5244 49.4672V52.0261H33.4756V49.4672C33.4756 48.9928 33.0944 48.6117 32.62 48.6117H30.0611V45.5629Z" fill="#0278FA"/>
</svg>
